<?xml version="1.0" standalone="no"?>
<!DOCTYPE svg PUBLIC "-//W3C//DTD SVG 20010904//EN"
 "http://www.w3.org/TR/2001/REC-SVG-20010904/DTD/svg10.dtd">
<svg version="1.0" xmlns="http://www.w3.org/2000/svg"
 width="600.000000pt" height="302.000000pt" viewBox="0 0 600.000000 302.000000"
 preserveAspectRatio="xMidYMid meet">

<g transform="translate(0.000000,302.000000) scale(0.100000,-0.100000)"
fill="#000000" stroke="none">
<path d="M0 1510 l0 -1510 523 0 523 0 -5 48 c-9 89 -5 287 7 322 6 19 13 85
16 145 2 61 8 128 11 151 6 36 9 40 35 38 31 -2 44 14 30 36 -13 21 -2 30 24
20 13 -5 27 -6 31 -2 4 4 1 -6 -6 -21 -15 -33 -3 -47 42 -47 50 0 59 -24 61
-166 1 -71 -4 -172 -10 -224 -13 -105 -15 -221 -6 -269 l6 -31 1204 0 c1142 0
1252 2 1190 26 -8 3 -17 17 -21 31 -9 36 5 111 22 117 8 3 11 1 8 -4 -3 -6 -2
-10 4 -10 18 0 23 20 6 26 -10 4 -15 14 -12 25 3 10 -2 27 -10 38 -17 25 -15
25 24 6 34 -17 159 -23 173 -9 7 7 -10 9 -49 6 -32 -2 -74 1 -93 7 l-33 11 -1
277 c-1 305 -10 368 -53 389 -47 24 -92 78 -106 129 -8 27 -23 138 -35 245
-11 107 -22 213 -25 235 -2 22 -4 61 -4 86 -1 43 -3 46 -24 42 -24 -5 -24 -7
-31 -166 -10 -219 -11 -230 -20 -249 -4 -10 -6 -23 -3 -30 3 -7 6 -2 6 11 1
15 5 21 10 15 14 -15 -10 -144 -26 -144 -11 0 -13 8 -9 32 7 37 6 36 -36 -62
-11 -25 -34 -59 -50 -77 -30 -31 -30 -33 -14 -57 19 -30 20 -40 4 -30 -7 4 -4
-2 6 -14 21 -24 11 -29 -16 -8 -10 7 -18 27 -20 43 -2 27 -4 30 -23 21 -15 -7
-22 -19 -22 -41 0 -17 -5 -33 -11 -35 -7 -2 -12 -15 -12 -28 0 -17 4 -23 12
-18 6 4 4 -3 -5 -15 -8 -13 -13 -30 -10 -39 5 -11 3 -13 -6 -7 -10 6 -11 2 -6
-15 6 -18 4 -22 -8 -17 -9 3 -19 -3 -26 -19 -7 -16 -7 -24 0 -24 6 0 9 -8 7
-18 -3 -19 0 -22 28 -22 9 0 13 5 9 13 -4 6 1 3 9 -8 15 -18 15 -20 -2 -30
-11 -5 -17 -16 -15 -22 3 -7 -2 -16 -11 -19 -9 -3 -12 -12 -9 -22 5 -14 3 -15
-7 -5 -11 10 -16 9 -26 -5 -11 -14 -13 -14 -13 -2 0 20 24 52 32 43 4 -3 7 1
7 11 0 9 -6 19 -14 22 -8 3 -12 12 -9 19 5 14 -3 14 -134 0 -44 -5 -56 7 -26
23 14 9 15 15 3 55 -7 26 -9 62 -6 84 21 118 24 107 -36 126 -29 9 -68 26 -86
37 -31 19 -112 130 -112 154 0 6 -12 -9 -26 -33 -25 -45 -26 -71 -2 -71 7 0
21 -12 32 -26 14 -20 17 -37 13 -77 -3 -36 0 -58 10 -74 10 -15 11 -23 4 -23
-21 0 -26 5 -23 24 3 12 0 16 -9 11 -7 -5 -10 -4 -6 2 10 16 -4 74 -15 67 -6
-4 -7 -19 -4 -35 3 -16 1 -29 -4 -29 -6 0 -10 4 -10 9 0 5 -10 7 -22 3 -21 -5
-22 -4 -8 14 8 10 19 22 23 25 5 4 -4 10 -19 13 -16 4 -32 13 -36 19 -5 8 -8
6 -8 -5 0 -9 6 -19 13 -21 9 -4 9 -6 0 -6 -7 -1 -14 -11 -14 -23 -1 -17 -2
-19 -6 -5 -2 9 -11 17 -19 17 -8 0 -14 9 -14 20 0 17 -3 18 -25 8 -13 -6 -22
-15 -18 -21 3 -5 -3 -6 -15 -3 -33 11 -92 -4 -92 -22 0 -8 14 -37 31 -63 20
-32 31 -61 31 -86 0 -75 5 -71 -76 -66 -44 3 -76 1 -80 -5 -11 -19 -10 -96 2
-100 7 -2 12 -11 12 -20 0 -15 2 -15 10 -2 8 12 10 11 10 -6 0 -11 -5 -25 -10
-30 -8 -8 -6 -15 5 -24 20 -17 20 -79 -1 -87 -8 -3 -13 -11 -11 -17 3 -7 -1
-23 -9 -37 -7 -13 -13 -35 -14 -48 0 -13 -2 -22 -5 -19 -3 3 -7 53 -10 111 -3
59 -10 119 -15 133 -7 17 -7 31 -1 38 6 7 12 32 14 57 2 25 7 51 11 57 10 16
-9 48 -61 103 -43 46 -45 51 -41 98 l3 50 -40 10 c-52 13 -157 100 -191 157
l-26 45 -35 -56 c-19 -30 -31 -60 -27 -66 4 -7 3 -9 -4 -5 -6 3 -19 -4 -29
-18 -10 -13 -33 -31 -51 -40 -33 -17 -40 -34 -21 -53 6 -6 8 -16 5 -22 -14
-22 -26 -10 -26 25 0 31 -3 35 -22 32 -19 -2 -24 -11 -29 -53 -4 -28 -1 -89 7
-139 7 -49 12 -91 10 -93 -2 -2 -33 -12 -69 -22 l-65 -19 -5 76 c-3 43 -8 91
-11 107 -4 17 1 8 9 -18 9 -26 20 -45 25 -42 17 10 11 40 -16 88 -19 35 -24
57 -22 93 3 44 1 47 -27 56 -16 5 -58 21 -93 34 -34 13 -64 24 -66 24 -3 0 -6
-12 -8 -27 -3 -28 -4 -28 -72 -26 -38 2 -71 4 -73 7 -2 2 1 165 7 362 7 201 9
457 5 582 l-7 222 64 0 c36 0 69 -5 76 -12 8 -8 12 -65 12 -187 0 -97 4 -182
9 -190 8 -12 17 -8 49 21 58 52 76 59 163 65 74 6 81 4 156 -31 43 -21 89 -47
101 -59 34 -32 70 -108 93 -195 43 -170 10 -339 -100 -501 -43 -63 -77 -83
-165 -96 -30 -5 -44 -11 -38 -17 14 -14 121 8 152 30 71 53 151 198 177 320
37 179 -20 408 -119 484 -18 14 -58 38 -88 54 -49 26 -65 29 -150 29 -102 0
-137 -12 -192 -63 l-28 -26 0 176 c0 221 0 220 -110 216 l-75 -3 3 -221 c2
-122 -1 -389 -8 -594 -7 -229 -8 -376 -2 -382 5 -5 43 -12 85 -15 71 -5 75 -5
87 18 7 13 14 25 15 27 2 2 20 -4 41 -14 22 -9 59 -22 84 -29 36 -11 39 -13
18 -14 -15 -1 -52 10 -82 23 l-54 24 -11 -24 c-11 -24 -26 -28 -84 -24 -19 1
-34 -5 -44 -19 -10 -15 -25 -21 -49 -21 l-35 0 32 -39 c26 -33 30 -44 24 -72
l-7 -33 -19 48 c-21 56 -45 86 -68 85 -11 0 -9 -3 6 -9 12 -5 27 -19 33 -31
10 -17 10 -20 -2 -13 -30 19 -45 8 -39 -29 1 -4 -7 -3 -18 3 -25 13 -31 13
-31 -1 0 -5 4 -7 10 -4 9 6 13 -6 8 -22 -5 -12 -27 -12 -35 -1 -4 7 -1 8 7 3
9 -5 11 -4 6 4 -4 6 -11 9 -16 6 -6 -3 -34 13 -65 36 -55 41 -55 42 -54 93 0
28 -8 89 -18 136 l-19 85 -114 -2 c-63 -2 -145 -3 -181 -3 l-67 0 -27 -112
c-15 -62 -32 -119 -38 -126 -7 -9 -45 -12 -145 -10 -110 2 -137 6 -145 19 -7
12 3 56 41 170 28 85 62 197 77 249 14 52 48 163 74 245 27 83 58 186 70 230
23 83 126 351 143 373 7 8 43 12 113 12 122 0 122 0 155 -115 12 -44 32 -91
44 -104 11 -13 15 -21 7 -16 -9 5 -12 4 -10 -4 7 -19 24 -8 24 14 0 29 18 31
32 4 9 -16 13 -19 13 -8 0 9 7 22 15 29 17 14 50 5 39 -11 -4 -8 -9 -7 -15 2
-5 8 -9 9 -9 3 0 -6 11 -21 24 -33 24 -23 24 -23 35 -3 14 26 14 32 1 32 -5 0
-9 -3 -9 -7 3 -20 -2 -34 -10 -29 -15 10 -1 44 21 49 14 4 22 0 25 -14 3 -10
9 -16 14 -13 5 3 9 -33 9 -80 l0 -86 -44 0 c-25 0 -47 4 -51 9 -3 6 -17 6 -35
0 -36 -13 -31 -44 6 -35 28 7 30 -1 8 -32 -14 -21 -14 -22 5 -22 11 0 28 12
37 26 11 16 24 24 35 21 10 -3 20 0 23 7 3 7 5 7 5 -2 1 -7 5 -10 11 -7 17 10
11 -22 -7 -42 -10 -10 -15 -14 -10 -9 4 6 7 19 7 30 -1 19 -2 19 -13 5 -7 -9
-17 -14 -22 -12 -6 2 -16 -6 -23 -17 -8 -14 -9 -20 -1 -20 6 0 9 -6 6 -14 -9
-22 5 -27 20 -8 8 9 12 11 8 5 -4 -8 0 -13 9 -13 8 0 18 -5 22 -12 4 -6 3 -8
-4 -4 -5 3 -12 1 -14 -4 -2 -6 -13 -12 -24 -12 -15 -2 -20 -7 -16 -20 5 -21
13 -23 29 -7 15 15 33 3 33 -22 0 -16 -5 -19 -20 -14 -11 3 -28 2 -37 -4 -15
-9 -14 -10 10 -11 17 0 26 -4 22 -11 -4 -6 -13 -8 -21 -5 -8 3 -14 1 -14 -4 0
-6 4 -10 9 -10 5 0 9 -10 9 -22 -1 -26 30 -130 78 -268 l33 -95 2 70 c2 39 4
84 6 100 2 17 4 216 4 443 l0 413 22 8 c12 5 51 7 86 6 97 -3 104 -15 105
-198 0 -46 3 -57 14 -52 12 4 13 3 2 -10 -7 -8 -9 -15 -4 -15 4 0 3 -5 -4 -12
-7 -7 -12 -29 -12 -50 l0 -37 36 24 c46 31 92 44 171 47 48 2 61 6 61 18 -3
37 3 61 12 55 6 -4 8 -21 4 -41 -5 -28 -3 -35 12 -40 40 -12 128 -56 158 -79
17 -13 45 -46 61 -74 17 -28 32 -50 35 -50 3 0 19 21 35 47 21 33 51 60 100
90 95 58 159 76 254 69 118 -8 175 -30 242 -94 l58 -55 6 39 c4 21 12 63 19
93 l11 55 79 3 c49 2 83 -1 92 -9 9 -7 14 -31 14 -67 0 -38 5 -61 17 -74 16
-18 16 -18 0 -12 -13 5 -16 2 -11 -10 3 -9 11 -16 16 -16 6 0 7 -19 3 -50 -6
-41 -4 -50 8 -50 19 0 30 14 19 24 -9 10 -13 106 -4 107 52 10 61 4 42 -32 -8
-14 -7 -19 1 -19 8 0 10 -13 6 -43 -3 -23 -2 -49 3 -56 10 -18 2 -40 -13 -36
-41 10 -57 19 -57 31 0 8 -4 14 -10 14 -5 0 -10 -11 -10 -24 0 -13 -6 -27 -12
-29 -7 -3 4 -6 24 -6 27 -1 36 -5 32 -15 -3 -9 4 -15 21 -18 21 -5 25 -2 20
13 -6 17 0 19 59 19 57 0 66 -2 66 -18 0 -10 -5 -23 -11 -29 -6 -6 -8 -17 -3
-24 4 -7 8 -44 8 -83 l1 -71 -101 -1 c-76 0 -101 3 -97 12 2 7 0 15 -6 19 -7
4 -11 -4 -11 -19 0 -17 5 -26 16 -26 14 0 15 -2 3 -17 -12 -14 -12 -15 0 -9
11 7 12 1 6 -32 -7 -41 14 -102 35 -102 13 0 13 27 0 35 -5 3 -10 22 -10 41 0
28 6 38 32 54 17 10 36 16 42 12 6 -3 22 -5 35 -3 16 2 22 -2 19 -11 -3 -7
-15 -14 -27 -14 -25 -1 -63 -33 -55 -45 3 -5 14 -9 25 -9 25 0 24 -6 -7 -47
l-25 -33 36 0 c39 0 101 27 126 56 63 71 82 195 77 499 l-3 200 98 3 c62 2 97
-1 97 -8 0 -5 9 -10 20 -10 20 0 20 4 14 109 -8 125 -18 115 118 127 91 8 105
1 114 -57 4 -25 12 -39 21 -39 11 0 13 -5 8 -18 -4 -9 -8 -32 -9 -49 -2 -30 1
-33 26 -33 21 0 31 7 38 25 11 30 24 34 15 5 -5 -16 -2 -20 14 -20 40 0 61
-34 61 -99 l0 -58 30 3 c17 2 30 -1 30 -6 0 -6 -4 -10 -9 -10 -5 0 -7 -9 -4
-21 3 -12 1 -24 -5 -28 -7 -4 -13 -34 -14 -67 -3 -58 -2 -59 27 -70 17 -5 62
-9 101 -8 95 2 90 7 98 -92 3 -33 7 -71 9 -87 2 -15 1 -30 -3 -32 -5 -3 -7 6
-5 20 1 14 -2 28 -6 31 -5 3 -9 23 -9 45 0 28 -4 39 -15 39 -13 0 -15 -15 -13
-83 1 -46 -2 -88 -5 -94 -4 -6 -4 -18 -1 -27 4 -12 0 -16 -15 -16 -22 0 -28
14 -11 25 12 7 14 46 3 44 -5 -1 -18 -1 -31 0 l-23 1 21 22 c22 24 26 38 10
38 -5 0 -10 8 -10 19 0 10 -7 24 -16 32 -13 10 -17 10 -25 -2 -7 -11 -9 -8
-10 11 -1 14 -1 28 -1 31 1 4 -8 5 -18 2 -11 -3 -20 0 -20 6 0 6 -8 11 -17 12
-11 0 -13 3 -5 6 19 8 14 23 -9 23 -11 0 -18 -4 -15 -9 3 -4 -7 -6 -22 -3 -26
5 -26 5 -5 15 19 8 20 13 10 34 -6 13 -16 22 -23 19 -8 -3 -11 0 -7 10 3 7 9
14 14 14 4 0 6 6 3 13 -2 7 2 26 10 41 7 15 12 36 9 46 -4 16 -7 17 -31 4 -15
-8 -41 -14 -59 -14 -17 0 -34 -4 -37 -9 -3 -4 6 -6 21 -3 18 3 30 -1 40 -13
13 -18 13 -18 14 1 0 10 3 14 5 7 3 -7 0 -21 -6 -32 -7 -14 -7 -21 0 -21 14 0
13 -27 -1 -32 -9 -3 -9 -10 1 -28 l12 -25 -23 22 c-17 16 -20 25 -12 35 8 9 8
22 -2 46 -8 17 -16 32 -19 32 -6 0 -1 -28 7 -36 10 -11 8 -24 -3 -24 -6 0 -15
10 -20 23 -8 21 -9 21 -7 -5 1 -15 3 -25 6 -23 4 5 41 -50 41 -61 0 -16 -25 6
-31 27 -5 16 -7 6 -8 -32 -2 -89 11 -209 21 -203 5 3 9 0 7 -7 -5 -38 -1 -39
73 -24 33 6 36 9 22 22 -8 9 -13 18 -10 20 14 14 35 -30 39 -83 2 -32 9 -60
14 -61 6 -2 8 14 6 41 -3 24 0 46 5 50 6 4 8 -2 5 -14 -7 -26 25 -63 48 -57 9
3 23 1 30 -4 10 -6 11 -9 2 -9 -7 0 -13 -5 -13 -11 0 -5 4 -8 9 -4 5 3 18 -8
27 -25 10 -16 22 -30 27 -30 5 0 0 12 -11 28 -31 44 -35 67 -12 69 16 1 20 -5
21 -35 1 -20 3 -29 6 -19 3 12 10 16 20 13 13 -5 14 -4 4 8 -15 18 -11 68 7
74 6 2 12 -5 12 -15 0 -15 2 -16 10 -3 7 11 10 7 10 -17 0 -18 4 -33 8 -33 4
0 8 -9 9 -19 1 -11 13 -38 27 -60 29 -45 28 -46 -8 -30 -20 9 -29 9 -40 0 -17
-14 -36 -7 -36 14 0 9 -9 12 -31 8 -23 -3 -30 -1 -27 9 3 7 -1 18 -8 25 -24
24 -23 28 -27 -119 -1 -59 -6 -110 -10 -114 -4 -4 -7 -20 -7 -36 0 -29 -24
-40 -33 -15 -4 10 -6 10 -6 0 -1 -17 -103 -17 -119 -1 -8 8 -12 9 -12 1 0 -6
5 -13 12 -15 6 -2 17 -20 24 -39 7 -19 13 -26 13 -16 1 11 9 17 24 17 13 0 28
5 35 12 17 17 25 3 12 -21 -6 -12 -7 -21 -1 -21 13 0 31 -57 30 -94 -1 -30 -1
-30 -9 -6 l-8 25 -1 -28 c-1 -16 4 -37 9 -48 9 -16 7 -19 -14 -19 -13 0 -32
-3 -40 -6 -14 -5 -15 -2 -7 20 7 17 7 27 0 32 -6 3 -9 17 -6 31 4 24 4 24 -14
4 -22 -23 -24 -37 -7 -47 8 -5 9 -1 4 12 -6 15 -5 16 5 7 9 -9 8 -17 -4 -36
-18 -28 -12 -68 9 -60 8 3 14 0 14 -6 0 -6 -7 -11 -15 -11 -11 0 -13 -8 -9
-32 11 -63 25 -110 31 -104 8 7 33 -13 33 -26 0 -6 -7 -7 -15 -4 -18 6 -21 -1
-28 -62 -4 -34 -2 -42 8 -38 20 7 25 -18 18 -85 -5 -46 -12 -67 -33 -90 -31
-32 -27 -38 8 -13 20 14 22 14 22 0 0 -9 -4 -16 -10 -16 -5 0 2 -11 15 -24 20
-20 23 -31 19 -55 l-7 -31 250 0 250 0 1 41 c1 23 6 58 11 78 14 53 33 315 26
354 -5 23 -1 45 10 67 12 23 16 51 13 97 -2 53 0 67 15 77 9 7 17 19 17 27 0
28 27 92 33 78 3 -8 4 8 2 36 -3 47 -5 49 -34 53 -36 4 -60 22 -156 117 -135
134 -164 220 -170 520 -5 242 37 618 72 647 8 6 32 11 53 10 21 -1 42 3 46 10
4 6 3 8 -4 4 -22 -13 -22 13 0 34 15 13 33 20 52 18 16 -2 31 2 33 10 3 8 -10
12 -46 12 -37 0 -53 4 -57 15 -4 8 -10 12 -15 10 -14 -9 -22 45 -11 70 8 17
17 22 31 18 12 -3 29 1 38 8 15 12 16 12 10 -4 -6 -15 -4 -16 16 -6 21 12 21
11 7 -6 -14 -17 -14 -18 8 -6 21 11 22 10 22 -22 0 -26 5 -36 20 -40 24 -6 25
1 5 27 -8 11 -15 27 -14 35 0 10 3 8 9 -6 6 -16 15 -20 32 -17 20 5 21 4 5 -6
-13 -9 -15 -15 -7 -31 14 -26 3 -41 -22 -33 -18 5 -20 3 -15 -15 3 -11 2 -21
-2 -21 -5 0 -8 -13 -9 -30 -1 -39 14 -39 22 1 3 17 10 28 16 24 6 -3 17 1 26
9 8 9 22 16 31 16 11 0 14 9 10 38 -2 20 -2 29 0 19 3 -10 10 -16 16 -14 7 2
18 -2 25 -10 19 -18 34 -6 26 20 -6 20 -5 21 8 4 7 -10 26 -19 41 -21 15 -1
27 -6 27 -9 0 -4 0 -13 0 -19 0 -8 -3 -9 -8 -3 -10 14 -66 20 -57 6 3 -6 11
-9 16 -6 5 4 24 -5 42 -19 19 -15 38 -26 42 -26 5 0 0 6 -11 14 -18 14 -18 15
-1 21 12 5 16 14 12 29 -5 18 -4 17 9 -4 9 -14 15 -20 16 -14 0 7 7 14 15 18
13 5 14 2 4 -15 -9 -18 -8 -20 13 -17 15 2 23 -2 23 -12 0 -8 -5 -14 -12 -13
-7 2 -10 -4 -6 -13 4 -12 8 -12 13 -4 5 7 13 9 21 5 9 -6 11 -4 6 7 -4 11 2
17 18 20 27 6 37 -15 24 -47 -4 -11 -8 -14 -8 -6 -1 11 -4 11 -16 1 -11 -9
-15 -9 -15 -1 0 9 -6 9 -22 0 -13 -7 -40 -16 -61 -20 -30 -5 -37 -4 -33 7 3 8
1 14 -4 14 -6 0 -10 -7 -10 -16 0 -10 -6 -14 -15 -11 -8 4 -17 2 -20 -3 -9
-14 -38 -4 -46 16 -7 18 -8 18 -8 -2 -1 -12 -8 -27 -16 -34 -8 -7 -15 -22 -14
-34 0 -20 1 -21 9 -1 8 18 9 18 9 2 1 -10 6 -15 11 -12 9 5 10 -4 10 -52 0 -8
-11 -9 -87 -12 -38 -1 -43 -4 -42 -23 0 -13 3 -17 6 -10 2 6 9 12 14 12 4 0 6
-7 3 -15 -4 -8 -4 -15 -1 -15 14 0 57 24 57 32 0 4 11 8 25 8 22 0 24 -3 16
-19 -12 -21 -5 -32 15 -24 8 3 14 -1 14 -8 0 -8 3 -51 6 -95 l6 -81 -26 -5
c-14 -3 -28 -3 -31 0 -9 10 -39 11 -50 3 -5 -4 -25 -4 -43 1 -28 7 -32 12 -27
31 5 17 4 19 -4 6 -17 -26 -19 -89 -8 -191 11 -103 15 -110 71 -104 23 3 24 2
25 -93 2 -98 10 -121 42 -121 11 0 19 -4 19 -10 0 -14 -37 -12 -43 3 -4 9 -8
8 -16 -3 -6 -8 -11 -19 -11 -25 0 -5 4 -5 8 2 4 7 13 9 20 4 18 -11 -2 -61
-24 -61 -8 0 -14 -6 -11 -12 2 -8 20 -12 41 -12 51 2 102 52 121 119 38 131
42 274 19 584 -10 136 -12 217 -6 223 11 11 174 48 212 48 34 0 50 -17 50 -52
0 -15 4 -28 10 -28 5 0 7 7 4 15 -4 8 -1 15 6 15 6 0 10 -10 8 -22 -2 -13 -9
-22 -16 -21 -13 3 -15 -19 -6 -54 4 -16 14 -23 30 -23 13 0 24 -4 24 -10 0 -5
-4 -10 -10 -10 -5 0 -10 -8 -9 -17 0 -11 3 -13 6 -5 2 6 9 12 14 12 6 0 7 -4
4 -10 -3 -5 -1 -10 5 -10 7 0 10 7 6 15 -6 17 9 21 19 4 4 -6 19 -7 35 -4 27
6 29 4 28 -25 -1 -18 -7 -34 -14 -37 -7 -2 -11 -13 -9 -24 3 -13 -2 -19 -16
-19 -10 0 -19 5 -19 11 0 5 3 8 8 6 4 -3 7 12 7 34 0 22 -5 41 -12 44 -9 3
-13 -5 -13 -23 0 -16 -6 -34 -12 -41 -10 -11 -10 -13 0 -7 7 5 12 1 12 -9 0
-10 -5 -13 -12 -9 -7 5 -9 2 -5 -8 3 -10 -3 -20 -19 -28 -18 -10 -24 -22 -24
-47 0 -18 3 -33 6 -33 4 0 26 17 49 39 62 57 131 75 270 68 137 -6 176 -18
231 -69 24 -22 48 -37 54 -33 7 4 10 1 9 -6 -1 -8 3 -25 10 -39 11 -24 11 -24
7 7 -6 37 0 40 86 45 29 2 44 -1 40 -7 -11 -18 -12 -46 -2 -40 5 3 10 -1 10
-9 0 -9 5 -16 12 -16 6 0 8 -3 5 -6 -4 -4 -13 -1 -22 6 -10 8 -15 9 -15 2 0
-6 9 -16 21 -22 11 -7 18 -14 15 -17 -3 -3 -13 0 -22 7 -13 11 -17 11 -24 0
-12 -19 -60 -22 -67 -4 -7 19 -22 8 -18 -14 2 -9 4 -26 5 -37 l1 -20 9 20 c5
13 9 14 9 5 0 -21 -17 -59 -18 -41 -1 12 -4 12 -13 3 -12 -12 -202 -17 -232
-6 -8 3 -20 21 -26 39 -11 35 -47 55 -97 55 -20 0 -22 -4 -17 -25 4 -17 2 -25
-7 -26 -38 -3 -89 -25 -89 -38 0 -24 35 -36 99 -33 59 3 64 2 47 -11 -10 -7
-30 -12 -45 -10 -14 2 -2 -5 28 -16 30 -11 59 -17 65 -14 6 4 17 8 26 10 60
10 70 10 70 2 0 -6 4 -8 9 -5 5 4 14 -6 19 -21 12 -32 14 -11 3 27 -5 17 -16
27 -36 31 -26 6 -23 7 15 8 46 1 87 -16 63 -26 -8 -3 -13 -24 -13 -52 0 -45 2
-48 38 -66 20 -10 40 -18 44 -17 5 1 7 -1 6 -6 -2 -4 7 -23 19 -42 42 -69 50
-142 27 -235 -3 -14 -2 -25 2 -24 21 4 34 -2 34 -15 0 -16 -34 -31 -49 -21 -6
3 -28 -19 -50 -48 -23 -29 -52 -59 -65 -67 -20 -10 -24 -19 -20 -44 4 -28 -1
-23 -11 11 -3 8 -16 8 -51 -3 -26 -8 -60 -14 -77 -14 -24 0 -28 -3 -24 -20 3
-13 -1 -21 -14 -25 -30 -10 -39 2 -27 35 9 28 13 30 61 29 114 -3 203 56 260
170 46 93 34 224 -26 289 -33 36 -75 55 -306 137 -141 51 -174 95 -110 149 38
32 67 40 125 33 48 -5 84 -30 84 -57 0 -34 24 -41 131 -38 l104 3 -2 49 c-3
104 -95 194 -221 214 -258 43 -430 -50 -440 -238 -3 -52 1 -78 16 -113 30 -67
83 -97 244 -137 161 -39 191 -51 223 -86 31 -33 34 -93 7 -117 -28 -25 -82
-44 -147 -51 -51 -6 -67 -3 -105 16 -27 14 -50 35 -59 53 -8 17 -17 37 -21 45
-6 11 -26 15 -84 15 -92 0 -99 -6 -93 -90 7 -92 35 -144 98 -187 52 -35 82
-43 192 -51 15 -1 27 -5 27 -10 0 -10 -77 -2 -153 14 -62 14 -142 84 -158 140
-7 21 -15 39 -18 39 -3 0 -16 -18 -28 -39 l-22 -39 34 -33 c20 -20 35 -44 36
-59 0 -22 1 -23 8 -5 8 19 8 19 19 -2 14 -26 17 -76 3 -54 -5 8 -16 11 -26 8
-9 -4 -14 -3 -10 3 3 6 1 10 -5 10 -6 0 -13 -6 -15 -12 -8 -20 -126 -11 -142
10 -12 15 -13 14 -13 -1 0 -22 -27 -11 -35 14 -8 24 -23 25 -33 1 -4 -9 -23
-44 -42 -77 -33 -58 -34 -64 -37 -178 -1 -65 1 -116 6 -113 12 8 14 -127 2
-172 -6 -20 -11 -68 -12 -107 -1 -38 -8 -103 -16 -142 -10 -56 -10 -79 -1 -98
l11 -25 174 0 c171 0 174 0 163 20 -7 13 -7 20 -1 20 6 0 15 -9 21 -20 12 -23
30 -27 30 -7 0 17 -34 49 -43 41 -7 -8 8 50 18 66 7 12 18 137 16 200 -1 25 3
51 8 59 14 22 41 22 41 0 0 -10 5 -19 11 -19 6 0 8 9 4 20 -5 14 -2 20 9 20 9
0 16 -9 16 -20 0 -11 5 -20 11 -20 6 0 9 9 6 20 -3 13 0 20 9 20 8 0 14 -9 14
-20 0 -11 5 -20 11 -20 6 0 8 9 4 21 -6 19 -4 21 14 16 15 -3 21 -1 18 6 -4
14 -8 14 -94 16 -48 1 -61 4 -57 15 4 9 20 13 55 11 27 -2 52 1 55 6 3 5 -20
9 -50 9 -43 0 -54 3 -50 14 4 9 20 13 55 11 27 -2 52 1 55 6 3 5 -20 9 -50 9
-31 0 -56 4 -56 9 0 15 26 20 89 15 40 -2 60 0 56 6 -3 6 -35 10 -71 10 -41 0
-63 4 -59 10 8 14 112 12 154 -3 19 -7 37 -18 39 -26 3 -8 1 -11 -4 -8 -5 3
-9 -5 -10 -16 -2 -39 -14 -119 -20 -129 -3 -5 0 -15 6 -23 8 -10 10 -60 6
-180 l-6 -165 385 0 385 0 0 669 -1 668 -42 -3 -42 -3 40 13 40 13 3 832 3
832 -133 -3 c-117 -3 -133 -5 -132 -20 1 -10 -4 -14 -12 -11 -7 3 -12 10 -11
16 1 9 -71 13 -270 15 -252 2 -272 1 -276 -15 -4 -16 -5 -16 -6 -1 -1 15 -24
17 -251 18 -137 0 -250 -2 -250 -5 0 -4 5 -16 11 -28 10 -21 10 -21 -5 -3 -9
11 -16 23 -16 28 0 4 -175 8 -389 8 -385 0 -389 0 -384 -20 4 -16 2 -19 -11
-14 -9 3 -16 12 -16 20 0 19 -290 21 -290 2 0 -7 -9 -24 -19 -37 -13 -17 -18
-19 -18 -7 0 9 4 16 8 16 3 0 9 9 12 20 5 20 0 20 -1769 20 l-1774 0 0 -1510z
m4565 1480 c3 -5 1 -10 -4 -10 -6 0 -11 5 -11 10 0 6 2 10 4 10 3 0 8 -4 11
-10z m-1503 -32 c-7 -7 -12 -8 -12 -2 0 6 3 14 7 17 3 4 9 5 12 2 2 -3 -1 -11
-7 -17z m2105 0 c-3 -8 -6 -5 -6 6 -1 11 2 17 5 13 3 -3 4 -12 1 -19z m-1857
-19 c10 -18 9 -20 -7 -17 -10 2 -19 11 -21 21 -5 24 15 21 28 -4z m577 15 c-3
-3 -12 -4 -19 -1 -8 3 -5 6 6 6 11 1 17 -2 13 -5z m218 -63 c2 -17 0 -31 -5
-31 -5 0 -9 16 -8 35 1 41 8 40 13 -4z m445 9 c0 -19 -18 -19 -23 -1 -3 14 -1
18 9 14 8 -3 14 -9 14 -13z m1383 -52 c6 -4 8 -10 4 -15 -13 -12 -27 19 -25
57 l1 35 4 -35 c3 -19 10 -38 16 -42z m-2229 53 c3 -5 -1 -11 -9 -14 -9 -4
-12 -1 -8 9 6 16 10 17 17 5z m119 -34 c-9 -16 -26 12 -18 30 7 17 8 17 15 -2
4 -11 5 -24 3 -28z m587 33 c0 -5 -2 -10 -4 -10 -3 0 -8 5 -11 10 -3 6 -1 10
4 10 6 0 11 -4 11 -10z m-1103 -32 c-3 -7 -5 -2 -5 12 0 14 2 19 5 13 2 -7 2
-19 0 -25z m1303 -50 c0 -19 -16 -5 -17 14 -2 18 0 20 7 8 5 -8 10 -18 10 -22z
m-1292 -3 c-3 -3 -9 2 -12 12 -6 14 -5 15 5 6 7 -7 10 -15 7 -18z m512 -24 c0
-20 5 -42 10 -49 6 -6 7 -10 3 -7 -9 7 -44 -26 -37 -36 3 -5 1 -9 -5 -9 -16 0
-22 17 -15 45 3 14 12 25 20 25 8 0 14 8 14 18 0 15 -2 15 -11 2 -9 -12 -10
-12 -5 3 3 10 6 28 6 38 0 11 5 17 10 14 6 -3 10 -23 10 -44z m-1998 9 c3 -16
1 -35 -4 -42 -4 -8 -8 4 -8 30 0 49 6 55 12 12z m-827 10 c-3 -5 -11 -10 -16
-10 -6 0 -7 5 -4 10 3 6 11 10 16 10 6 0 7 -4 4 -10z m980 -10 c-10 -11 -21
-17 -24 -14 -3 3 3 12 13 20 28 20 32 17 11 -6z m1335 -16 c0 -8 -4 -12 -10
-9 -5 3 -10 10 -10 16 0 5 5 9 10 9 6 0 10 -7 10 -16z m1290 -21 c-3 -62 -1
-71 10 -53 5 8 11 12 15 9 3 -3 -4 -16 -15 -29 l-20 -23 0 24 c0 14 -6 31 -12
38 -11 11 -10 12 0 6 8 -4 13 -2 11 6 -3 25 1 59 7 59 3 0 5 -17 4 -37z
m-1233 -5 c-3 -8 -6 -5 -6 6 -1 11 2 17 5 13 3 -3 4 -12 1 -19z m535 -40 c-11
-11 -55 -1 -47 11 2 5 16 6 30 3 17 -3 23 -8 17 -14z m365 16 c-3 -3 -12 -4
-19 -1 -8 3 -5 6 6 6 11 1 17 -2 13 -5z m203 -4 c-13 -8 -12 -10 3 -10 10 0
16 -4 13 -9 -3 -5 -15 -7 -26 -4 -16 4 -18 8 -9 19 6 8 17 14 23 14 6 0 4 -5
-4 -10z m-470 -13 c0 -5 -11 -7 -25 -5 -13 3 -26 0 -28 -5 -2 -6 -6 -3 -10 6
-5 13 0 16 28 15 19 -1 35 -6 35 -11z m208 6 c-10 -2 -26 -2 -35 0 -10 3 -2 5
17 5 19 0 27 -2 18 -5z m-2068 -34 c0 -17 -4 -28 -10 -24 -9 6 -11 -4 -14 -72
-1 -13 8 -18 32 -19 18 -1 38 -6 45 -13 15 -15 27 -14 27 4 0 8 7 15 16 15 14
0 14 -3 4 -15 -15 -18 -10 -18 24 -5 17 6 27 6 32 -2 4 -7 10 -5 16 6 5 9 14
14 19 11 5 -4 7 -10 4 -15 -3 -5 -1 -11 5 -15 5 -3 10 -1 10 5 0 8 6 8 20 0
15 -8 20 -8 21 2 0 10 2 10 6 -1 5 -11 7 -11 14 0 7 11 12 12 29 2 25 -17 82
-18 60 -2 -12 8 -9 10 12 6 19 -3 28 1 31 12 2 9 3 5 1 -9 -1 -14 -5 -34 -7
-45 -3 -11 -6 -26 -6 -33 -1 -7 -5 -11 -10 -8 -5 4 -12 0 -15 -6 -3 -7 -3 -3
0 10 3 13 1 22 -6 22 -6 0 -8 -4 -5 -10 8 -13 -16 -13 -50 0 -17 7 -24 7 -20
0 3 -6 -4 -10 -17 -10 -13 0 -29 -5 -36 -12 -9 -9 -12 -9 -12 0 0 6 -6 9 -14
6 -10 -4 -14 1 -13 15 1 12 5 21 9 21 4 0 8 4 8 9 0 5 -54 7 -119 4 -66 -2
-122 0 -124 4 -3 4 -8 38 -11 74 -6 60 -5 69 16 93 13 14 24 26 26 26 1 0 2
-14 2 -31z m157 25 c-3 -3 -12 -4 -19 -1 -8 3 -5 6 6 6 11 1 17 -2 13 -5z
m903 -25 c0 -10 -5 -19 -11 -19 -6 0 -9 -6 -6 -14 3 -7 0 -19 -6 -25 -8 -8 -8
-14 0 -22 14 -14 6 -39 -13 -39 -12 0 -13 -4 -3 -22 7 -13 17 -27 23 -31 6 -4
-7 -6 -29 -4 -34 3 -40 7 -39 26 0 14 -4 20 -13 17 -8 -4 -13 2 -12 17 1 24
16 78 18 63 1 -13 41 30 41 44 0 6 5 8 12 4 7 -5 8 -3 3 6 -4 7 -2 16 6 20 17
11 29 3 29 -21z m1343 24 c-7 -2 -19 -2 -25 0 -7 3 -2 5 12 5 14 0 19 -2 13
-5z m-3443 -13 c0 -5 -2 -10 -4 -10 -3 0 -8 5 -11 10 -3 6 -1 10 4 10 6 0 11
-4 11 -10z m2200 0 c0 -5 -5 -10 -11 -10 -5 0 -7 5 -4 10 3 6 8 10 11 10 2 0
4 -4 4 -10z m80 -5 c0 -12 -19 -12 -23 0 -4 9 -1 12 9 8 7 -3 14 -7 14 -8z
m1461 -2 c13 -15 12 -15 -7 -5 -16 8 -24 8 -34 -1 -12 -10 -12 -9 -1 6 17 21
25 21 42 0z m732 2 c-3 -9 -8 -14 -10 -11 -3 3 -2 9 2 15 9 16 15 13 8 -4z
m-3893 -5 c0 -5 -2 -10 -4 -10 -3 0 -8 5 -11 10 -3 6 -1 10 4 10 6 0 11 -4 11
-10z m876 -35 c-4 -56 -16 -72 -16 -22 0 34 8 67 16 67 2 0 2 -20 0 -45z
m1000 -17 c3 -37 2 -40 -7 -18 -5 13 -15 28 -22 32 -9 6 -8 8 2 8 9 0 11 7 8
21 -4 16 -3 19 5 11 6 -6 12 -30 14 -54z m704 58 c0 -2 -7 -7 -16 -10 -8 -3
-12 -2 -9 4 6 10 25 14 25 6z m1410 -12 c0 -8 -5 -12 -10 -9 -6 4 -8 11 -5 16
9 14 15 11 15 -7z m-2259 -11 c13 -16 12 -17 -3 -4 -17 13 -22 21 -14 21 2 0
10 -8 17 -17z m725 2 c-3 -8 -1 -15 4 -15 5 0 13 -12 16 -27 9 -36 23 -55 37
-46 6 3 7 1 3 -6 -4 -6 -12 -8 -18 -5 -5 4 -2 -5 7 -20 19 -29 10 -36 -11 -9
-7 10 -15 15 -18 12 -3 -3 3 -15 14 -27 12 -12 19 -22 18 -23 -27 -7 -59 -2
-62 11 -10 41 -7 170 4 170 7 0 10 -7 6 -15z m437 -24 c-6 -3 -12 -13 -15 -21
-5 -12 -7 -11 -14 4 -5 13 -3 21 4 24 7 2 12 11 12 20 1 15 2 14 11 -2 7 -12
8 -21 2 -25z m-3483 -34 c-1 -44 -29 -102 -31 -61 0 10 -2 29 -5 41 -2 12 1
25 6 28 6 3 10 15 10 26 0 11 5 17 10 14 6 -3 10 -25 10 -48z m2374 31 c16
-49 16 -67 1 -62 -10 4 -13 14 -9 30 7 29 -11 32 -26 5 -13 -26 -13 -31 5 -31
8 0 15 -7 15 -16 0 -8 -4 -12 -10 -9 -5 3 -10 2 -10 -3 0 -13 29 -24 43 -16 7
3 4 -1 -5 -9 -11 -8 -44 -15 -85 -16 -37 -1 -70 -4 -74 -7 -12 -7 -20 12 -25
59 -5 35 -2 45 11 51 9 3 22 3 28 -1 7 -5 24 -8 40 -9 21 0 26 3 22 17 -4 13
0 16 20 14 14 -2 25 1 25 6 0 14 30 11 34 -3z m370 -14 c-4 -15 1 -32 15 -50
15 -19 21 -22 21 -10 0 26 2 30 19 43 30 23 61 15 76 -19 8 -18 14 -27 15 -20
0 7 4 11 9 8 16 -10 0 -52 -20 -53 -10 -1 -19 2 -19 8 0 5 5 9 12 9 6 0 9 2 6
5 -9 10 -38 -7 -31 -18 4 -6 -2 -8 -18 -4 -13 4 -34 7 -45 7 -14 0 -24 8 -28
23 -6 20 -7 20 -17 5 -12 -22 -33 -24 -26 -3 4 8 1 17 -5 21 -7 4 -8 3 -4 -4
4 -7 1 -12 -7 -12 -8 0 -18 7 -21 16 -4 10 -12 14 -22 10 -10 -4 -14 -1 -11 6
2 7 0 22 -6 33 -8 16 -7 18 4 8 14 -14 60 -18 58 -5 -3 14 1 17 26 18 21 2 24
-1 19 -22z m1838 4 c-7 -7 -12 -8 -12 -2 0 14 12 26 19 19 2 -3 -1 -11 -7 -17z
m-4106 -57 l1 -69 -30 9 c-39 11 -45 18 -27 30 13 9 12 10 -2 5 -10 -3 -20 -1
-23 3 -2 5 5 11 18 15 12 3 24 1 25 -4 7 -21 19 -9 14 15 -2 15 0 25 7 25 7 0
9 5 6 10 -5 8 1 30 9 30 1 0 2 -31 2 -69z m1781 54 c0 -8 -4 -15 -9 -15 -10 0
-11 14 -1 23 9 10 10 9 10 -8z m695 -22 c4 -37 4 -37 15 -13 10 22 12 22 13 5
0 -11 3 -31 6 -45 l5 -25 -13 23 c-8 12 -17 20 -21 16 -7 -7 -11 3 -21 49 -4
15 -2 27 3 27 5 0 11 -17 13 -37z m-2141 0 l24 -27 -24 15 c-14 9 -27 21 -29
27 -6 19 3 14 29 -15z m2465 7 c9 0 12 -4 9 -10 -3 -5 1 -20 9 -32 19 -30 24
-70 10 -75 -7 -2 -12 2 -11 9 0 7 -1 27 -2 43 l-2 30 -11 -25 c-6 -14 -10 -31
-9 -37 1 -8 -4 -10 -14 -7 -8 3 -12 11 -9 16 4 6 -3 5 -15 -1 -17 -10 -20 -9
-15 4 4 8 1 15 -5 15 -6 0 -11 5 -11 10 0 6 6 9 13 8 7 -2 12 9 13 27 0 17 6
29 12 28 7 -2 12 3 13 10 0 10 2 10 6 0 2 -7 11 -13 19 -13z m666 -24 c-4 -13
-1 -17 9 -14 8 3 12 14 11 24 -2 10 -1 16 4 12 4 -4 13 -3 21 3 11 9 12 7 9
-12 -3 -13 -5 -28 -5 -32 -1 -5 -5 -6 -10 -2 -5 3 -13 0 -17 -6 -4 -8 -3 -9 4
-5 7 4 12 2 12 -5 0 -7 7 -4 15 7 14 18 15 17 13 -11 -2 -29 -4 -30 -40 -27
-31 3 -38 8 -39 26 0 11 -2 35 -3 53 -3 24 -1 29 9 20 6 -6 10 -20 7 -31z
m-3902 18 c0 -8 -4 -12 -10 -9 -5 3 -10 10 -10 16 0 5 5 9 10 9 6 0 10 -7 10
-16z m4729 -15 c-19 -12 -39 -11 -39 1 0 5 6 7 14 4 7 -3 17 3 21 13 5 13 9
15 12 4 3 -7 -1 -17 -8 -22z m-204 11 c3 -5 1 -10 -4 -10 -6 0 -11 5 -11 10 0
6 2 10 4 10 3 0 8 -4 11 -10z m-2395 -15 c0 -20 2 -26 17 -55 16 -31 12 -34
-31 -26 -53 10 -84 76 -36 76 10 0 22 5 25 10 9 15 25 12 25 -5z m377 -27 c-3
-7 -5 -2 -5 12 0 14 2 19 5 13 2 -7 2 -19 0 -25z m1533 22 c0 -5 -4 -10 -10
-10 -5 0 -10 5 -10 10 0 6 5 10 10 10 6 0 10 -4 10 -10z m30 0 c0 -5 -5 -10
-11 -10 -5 0 -7 5 -4 10 3 6 8 10 11 10 2 0 4 -4 4 -10z m-3234 -37 l-15 -28
-1 27 c0 14 6 28 13 31 19 7 20 1 3 -30z m1718 29 c3 -5 -1 -9 -9 -9 -8 0 -12
4 -9 9 3 4 7 8 9 8 2 0 6 -4 9 -8z m50 2 c20 -8 21 -34 1 -34 -8 0 -15 2 -15
4 0 2 -3 11 -6 20 -7 18 -4 19 20 10z m1052 -7 c8 3 14 -1 14 -11 0 -9 -7 -16
-15 -16 -8 0 -15 2 -15 4 0 2 -2 10 -3 18 -2 7 -2 10 0 6 2 -4 11 -4 19 -1z
m-2743 -50 c19 -19 32 -21 135 -19 104 1 113 0 106 -16 -4 -9 -9 -32 -12 -49
-2 -18 -9 -33 -15 -33 -6 0 -8 -28 -3 -82 4 -54 3 -78 -3 -68 -5 8 -7 18 -5
22 3 4 -23 9 -58 10 -42 1 -50 3 -25 5 20 2 37 8 37 14 0 5 5 9 11 9 5 0 7 -4
4 -10 -3 -5 1 -10 9 -10 20 0 20 -1 -1 46 -9 22 -18 52 -20 68 -4 33 -13 49
-13 23 0 -22 -17 -22 -23 1 -3 10 -5 7 -6 -10 -1 -20 3 -26 14 -22 9 4 15 0
15 -10 0 -9 -4 -16 -10 -16 -5 0 -10 -9 -10 -20 0 -11 5 -20 10 -20 6 0 10 -5
10 -10 0 -11 -40 8 -51 24 -4 5 -3 23 2 40 11 39 11 46 -1 46 -5 0 -10 -10
-10 -22 0 -19 -2 -20 -10 -8 -5 8 -10 11 -10 6 0 -12 -30 14 -30 26 0 6 7 5
15 -2 12 -10 15 -10 15 3 0 35 -33 28 -42 -10 -4 -15 -1 -23 9 -25 9 -2 17
-15 19 -31 1 -15 -2 -25 -7 -22 -5 4 -9 13 -9 22 0 9 -3 13 -7 10 -4 -4 -13 7
-20 24 -8 20 -17 28 -25 23 -10 -5 -10 -4 -1 6 6 7 9 19 6 27 -5 12 -7 12 -14
1 -6 -9 -9 -5 -9 13 0 14 6 31 13 38 10 10 9 11 -3 8 -8 -2 -12 -2 -9 0 4 2 5
14 3 26 -2 12 -1 16 2 8 4 -7 16 -23 27 -34z m2195 -10 c12 -3 10 -5 -5 -6
-20 -1 -23 4 -22 32 2 29 2 29 6 5 2 -15 12 -29 21 -31z m-701 21 c-3 -8 -6
-5 -6 6 -1 11 2 17 5 13 3 -3 4 -12 1 -19z m520 7 c0 -8 -4 -12 -9 -9 -4 3 -8
0 -8 -5 0 -6 -10 -11 -22 -10 -15 0 -18 2 -8 6 8 3 19 12 23 19 11 18 24 18
24 -1z m-287 -5 c0 -5 -5 -10 -11 -10 -5 0 -7 5 -4 10 3 6 8 10 11 10 2 0 4
-4 4 -10z m-1780 -4 c0 -3 -4 -8 -10 -11 -5 -3 -10 -1 -10 4 0 6 5 11 10 11 6
0 10 -2 10 -4z m636 -22 c-4 -9 -9 -15 -11 -12 -3 3 -3 13 1 22 4 9 9 15 11
12 3 -3 3 -13 -1 -22z m294 10 c0 -2 -7 -4 -15 -4 -8 0 -15 4 -15 10 0 5 7 7
15 4 8 -4 15 -8 15 -10z m110 7 c0 -6 -4 -13 -10 -16 -5 -3 -10 -14 -10 -23 1
-16 1 -16 11 1 13 22 24 22 49 -3 14 -14 20 -16 20 -6 0 9 7 12 20 9 23 -6 27
-23 5 -23 -9 0 -15 -10 -16 -22 -1 -17 -2 -19 -6 -5 -3 10 -14 17 -29 17 -13
0 -24 6 -24 13 0 8 -3 7 -10 -3 -6 -10 -5 -17 5 -23 8 -4 15 -13 15 -20 0 -8
-3 -7 -9 2 -5 7 -14 10 -20 7 -6 -4 -11 -2 -11 3 0 6 -7 11 -16 11 -14 0 -14
3 -4 15 9 10 9 15 1 15 -15 0 -14 33 1 48 14 14 38 16 38 3z m640 5 c0 -3 -4
-8 -10 -11 -5 -3 -10 -1 -10 4 0 6 5 11 10 11 6 0 10 -2 10 -4z m614 -4 c3 -5
-1 -9 -9 -9 -8 0 -12 4 -9 9 3 4 7 8 9 8 2 0 6 -4 9 -8z m846 -2 c0 -5 -4 -10
-10 -10 -5 0 -10 5 -10 10 0 6 5 10 10 10 6 0 10 -4 10 -10z m-2550 -30 c-12
-7 -12 -12 -2 -22 6 -6 12 -20 12 -29 0 -12 6 -17 20 -14 11 2 20 -1 20 -7 0
-6 6 -6 15 2 14 12 15 10 11 -15 -6 -33 -16 -46 -16 -21 0 10 -6 16 -12 13 -7
-2 -11 -11 -9 -18 2 -8 6 -30 9 -49 2 -19 10 -39 16 -43 7 -6 6 -7 -4 -4 -8 2
-16 18 -18 35 -2 18 -8 32 -14 32 -6 0 -8 -13 -6 -30 3 -20 0 -30 -9 -30 -8 0
-13 12 -13 30 0 17 -4 30 -10 30 -5 0 -7 6 -4 14 4 10 -1 15 -13 15 -15 0 -34
3 -75 10 -12 2 -9 71 3 71 5 0 7 -4 4 -10 -12 -19 6 -30 23 -14 15 15 17 14
26 -21 12 -40 25 -38 27 4 l1 26 8 -25 8 -25 1 25 c0 29 -22 63 -34 52 -9 -8
3 17 18 36 7 9 13 10 21 2 8 -8 7 -13 -4 -20z m136 10 c14 0 34 -4 44 -10 14
-8 19 -5 25 13 4 13 8 17 12 10 2 -7 18 -13 34 -13 18 0 28 -4 24 -10 -3 -5
-2 -10 4 -10 5 0 13 5 16 10 9 14 82 13 91 -2 4 -6 0 -17 -10 -23 -21 -16 -16
-57 9 -71 15 -10 22 -9 31 4 9 12 13 12 19 2 5 -9 4 -11 -3 -6 -7 4 -12 3 -12
-2 0 -13 26 -33 33 -26 4 4 1 -5 -6 -20 -15 -32 -44 -34 -50 -3 -4 20 -4 19
-6 -4 0 -15 6 -32 14 -39 8 -7 15 -9 15 -6 0 4 10 2 23 -4 21 -11 21 -11 2 5
-20 16 -20 16 2 21 13 4 20 11 16 20 -8 21 7 17 31 -9 29 -32 27 -47 -6 -79
-15 -15 -28 -23 -28 -19 0 5 7 14 15 21 8 7 15 19 15 27 0 12 -3 11 -16 -2
-11 -11 -20 -13 -27 -6 -5 5 -25 7 -43 4 -20 -3 -40 -1 -49 7 -8 7 -15 9 -15
4 0 -5 -24 -7 -54 -6 l-54 4 5 61 c3 34 9 66 13 70 10 12 -3 70 -18 75 -6 2
-17 -9 -24 -25 -9 -22 -12 -24 -15 -10 -3 9 -9 17 -14 17 -6 0 -7 -28 -3 -74
4 -47 3 -80 -4 -92 -9 -16 -11 -9 -12 34 0 28 -3 51 -7 51 -19 -3 -33 2 -33
11 0 6 9 10 19 10 15 0 19 7 19 36 0 32 -2 35 -23 30 -26 -7 -51 16 -39 36 6
9 9 9 12 0 2 -7 15 -12 28 -12z m2959 10 c3 -5 1 -10 -4 -10 -6 0 -11 5 -11
10 0 6 2 10 4 10 3 0 8 -4 11 -10z m-2083 -28 c14 -11 15 -18 7 -29 -10 -11
-14 -10 -24 4 -10 14 -10 20 -2 25 8 5 6 8 -5 8 -10 0 -18 5 -18 11 0 11 15 4
42 -19z m1147 -2 c-6 -16 -15 -28 -19 -25 -5 3 -13 -3 -19 -12 -8 -15 -10 -12
-9 15 1 24 7 36 22 42 33 14 36 12 25 -20z m125 21 c4 -5 -3 -7 -14 -4 -11 3
-20 0 -20 -6 0 -6 -4 -11 -8 -11 -5 0 -9 7 -9 15 0 16 42 21 51 6z m-3749 -12
c11 -16 1 -19 -13 -3 -7 8 -8 14 -3 14 5 0 13 -5 16 -11z m136 1 c17 0 28 -4
25 -8 -4 -7 -23 -8 -96 -3 -33 3 -33 4 -10 11 14 4 31 6 38 4 8 -2 27 -4 43
-4z m676 -12 c-3 -8 -6 -5 -6 6 -1 11 2 17 5 13 3 -3 4 -12 1 -19z m63 1 c0
-5 -4 -9 -10 -9 -5 0 -10 7 -10 16 0 8 5 12 10 9 6 -3 10 -10 10 -16z m670 17
c0 -3 -4 -8 -10 -11 -5 -3 -10 -1 -10 4 0 6 5 11 10 11 6 0 10 -2 10 -4z
m1057 -7 c-14 -8 -22 -8 -30 0 -8 8 -3 11 19 11 25 -1 27 -2 11 -11z m723 1
c0 -5 -4 -10 -10 -10 -5 0 -10 5 -10 10 0 6 5 10 10 10 6 0 10 -4 10 -10z
m473 3 c-7 -2 -19 -2 -25 0 -7 3 -2 5 12 5 14 0 19 -2 13 -5z m222 -3 c3 -5 1
-10 -4 -10 -6 0 -11 5 -11 10 0 6 2 10 4 10 3 0 8 -4 11 -10z m185 -6 c0 -2
-17 -4 -37 -3 -33 1 -35 2 -13 8 23 7 50 4 50 -5z m-3896 -4 c42 0 26 -10 -18
-12 -20 -1 -42 5 -49 12 -10 10 -7 12 13 6 14 -3 38 -6 54 -6z m97 -13 c-13
-13 -26 -3 -16 12 3 6 11 8 17 5 6 -4 6 -10 -1 -17z m157 2 c-19 -13 -28 -11
-28 5 0 9 7 12 21 9 16 -4 17 -8 7 -14z m647 11 c-4 -6 -1 -18 6 -26 6 -8 9
-17 5 -21 -3 -3 -6 -1 -6 5 0 7 -7 12 -15 12 -8 0 -15 9 -15 20 0 11 7 20 16
20 8 0 12 -5 9 -10z m874 -7 c9 -17 10 -17 17 0 6 17 8 17 25 1 16 -14 18 -26
13 -73 -4 -31 -8 -67 -10 -81 -1 -14 -3 -28 -3 -32 -1 -3 -9 -5 -18 -3 -10 2
-24 4 -30 4 -7 1 -13 7 -13 15 0 8 -5 18 -11 21 -6 4 -9 -4 -7 -22 2 -23 -1
-29 -21 -31 -32 -5 -48 12 -31 33 8 10 9 15 1 15 -6 0 -11 11 -11 25 0 14 5
25 11 25 6 0 9 -9 6 -19 -3 -12 1 -22 10 -25 9 -4 13 -14 10 -26 -3 -11 -1
-20 4 -20 5 0 9 9 9 20 0 12 7 32 16 45 9 13 17 30 18 38 3 22 34 49 47 41 8
-5 9 -2 2 11 -11 18 -73 30 -73 14 0 -5 -10 -9 -22 -9 -20 0 -20 1 -5 18 10
10 14 22 10 25 -3 4 5 7 20 7 14 0 30 -8 36 -17z m200 1 c1 -1 0 -7 -3 -12 -4
-7 -17 -6 -36 1 -24 9 -32 8 -49 -8 -17 -14 -21 -15 -21 -4 0 27 21 37 63 32
23 -3 44 -7 46 -9z m66 -7 c6 -5 3 -7 -7 -3 -20 6 -23 -4 -8 -22 5 -7 3 -6 -6
2 -10 9 -14 21 -10 32 3 9 10 13 14 8 4 -5 12 -13 17 -17z m185 9 c0 -17 -14
-29 -23 -20 -8 8 3 34 14 34 5 0 9 -6 9 -14z m220 4 c0 -5 -7 -10 -15 -10 -8
0 -15 5 -15 10 0 6 7 10 15 10 8 0 15 -4 15 -10z m30 6 c0 -3 -4 -8 -10 -11
-5 -3 -10 -1 -10 4 0 6 5 11 10 11 6 0 10 -2 10 -4z m125 -6 c3 -5 -1 -10 -9
-10 -9 0 -16 5 -16 10 0 6 4 10 9 10 6 0 13 -4 16 -10z m69 1 c3 -4 17 -6 31
-3 29 5 34 -13 5 -21 -27 -7 -57 2 -64 19 -6 15 19 20 28 5z m686 5 c0 -2 -7
-9 -15 -16 -13 -11 -14 -10 -9 4 5 14 24 23 24 12z m195 -6 c3 -5 -3 -10 -15
-10 -12 0 -18 5 -15 10 3 6 10 10 15 10 5 0 12 -4 15 -10z m254 6 c-11 -9 -69
-14 -69 -6 0 6 17 10 37 10 20 0 34 -2 32 -4z m-4436 -37 c-9 -9 -12 -7 -10 9
1 14 5 18 11 12 7 -7 6 -14 -1 -21z m2748 8 c6 -13 20 -27 32 -32 13 -6 23
-21 25 -38 2 -18 7 -25 15 -20 8 5 8 2 -1 -9 -10 -13 -9 -18 5 -29 15 -12 16
-12 10 6 -6 16 -3 15 13 -5 11 -14 20 -29 20 -33 0 -5 5 -5 10 -2 6 3 10 2 10
-4 0 -14 -18 -23 -25 -12 -3 6 -11 9 -18 7 -7 -1 -9 -1 -4 1 14 9 7 31 -10 28
-11 -1 -17 -9 -15 -21 2 -16 1 -16 -7 -4 -6 8 -8 23 -5 33 3 9 1 17 -4 17 -5
0 -10 6 -9 13 1 33 -4 47 -18 47 -8 0 -15 5 -15 10 0 6 -11 10 -25 10 -14 0
-25 5 -25 11 0 5 6 7 13 3 9 -5 9 -4 0 6 -12 13 -7 40 8 40 5 0 14 -10 20 -23z
m756 -14 c-3 -10 -5 -4 -5 12 0 17 2 24 5 18 2 -7 2 -21 0 -30z m43 33 c0 -2
-7 -6 -15 -10 -8 -3 -15 -1 -15 4 0 6 7 10 15 10 8 0 15 -2 15 -4z m313 -11
c4 -8 2 -17 -3 -20 -6 -4 -10 -4 -10 -1 0 2 -3 11 -6 20 -3 9 -2 16 4 16 5 0
12 -7 15 -15z m842 -5 c4 -11 11 -18 16 -15 12 8 11 2 -2 -32 -7 -15 -18 -53
-25 -83 l-14 -55 4 64 c3 35 9 67 15 71 8 4 5 13 -9 25 -11 10 -20 24 -20 32
0 21 28 15 35 -7z m-3618 -22 c-3 -7 -5 -2 -5 12 0 14 2 19 5 13 2 -7 2 -19 0
-25z m3125 20 c-7 -7 -9 -29 -6 -57 l4 -46 -14 35 c-8 19 -15 38 -15 42 -1 8
28 38 37 38 3 0 1 -5 -6 -12z m-2455 -20 c-3 -8 -6 -5 -6 6 -1 11 2 17 5 13 3
-3 4 -12 1 -19z m1699 -87 c2 -56 8 -110 13 -120 9 -15 7 -20 -9 -24 -17 -4
-18 -2 -9 14 5 10 6 19 1 19 -5 0 -9 43 -10 95 -1 53 -3 99 -3 103 -3 15 1 25
7 20 3 -4 7 -52 10 -107z m217 92 c-4 -10 -13 -24 -20 -31 -11 -11 -13 -10
-10 5 3 24 16 43 27 43 5 0 6 -8 3 -17z m-3178 -79 c-6 -80 -8 -80 -14 1 -7
75 -3 97 10 72 5 -8 7 -41 4 -73z m3297 68 c-7 -2 -12 -10 -12 -18 0 -19 -16
-18 -24 1 -3 9 0 15 9 15 8 0 15 5 15 11 0 5 5 7 12 3 9 -6 9 -9 0 -12z
m-2597 -21 c-6 -5 -25 10 -25 20 0 5 6 4 14 -3 8 -7 12 -15 11 -17z m310 20
c3 -5 2 -12 -3 -15 -5 -3 -9 1 -9 9 0 17 3 19 12 6z m1076 -18 c5 -13 5 -22 1
-22 -19 3 -25 -2 -12 -11 13 -8 12 -10 -3 -10 -10 0 -16 -4 -13 -9 4 -5 -2 -8
-11 -7 -10 2 -21 -2 -25 -8 -4 -6 -7 12 -7 39 1 40 3 44 8 21 7 -35 31 -47 31
-16 0 12 5 18 10 15 6 -3 10 1 10 11 0 13 -3 14 -13 5 -14 -11 -27 -5 -27 11
0 19 43 2 51 -19z m-1475 1 c-4 -12 -2 -15 9 -10 9 3 15 0 15 -9 0 -8 -4 -15
-9 -15 -14 0 -33 28 -26 40 10 16 18 12 11 -6z m784 -24 c0 -22 -4 -40 -10
-40 -5 0 -8 10 -6 23 3 12 5 30 5 40 2 35 11 16 11 -23z m500 24 c0 -8 -5 -12
-10 -9 -7 4 -9 -2 -4 -19 7 -29 -6 -34 -30 -11 -14 14 -14 18 2 35 21 23 42
25 42 4z m-755 -14 c7 0 15 -6 18 -14 3 -8 18 -16 33 -18 l26 -3 -21 -19 c-21
-19 -21 -19 -15 -1 5 13 4 16 -4 11 -7 -4 -12 -2 -12 4 0 6 -4 9 -10 5 -5 -3
-6 -13 -3 -22 4 -11 3 -14 -5 -9 -7 4 -10 17 -6 33 5 18 3 24 -5 19 -6 -4 -11
-22 -12 -39 0 -27 -2 -29 -9 -12 -5 12 -9 15 -9 6 -1 -12 -4 -12 -13 -3 -15
15 -28 15 -28 1 0 -5 6 -7 13 -3 9 5 9 4 0 -6 -9 -10 -15 -10 -27 3 -9 9 -16
24 -17 34 0 16 -1 16 -9 -2 -8 -18 -9 -17 -9 7 -1 20 3 26 14 22 8 -4 22 -1
30 6 8 7 21 10 30 7 8 -4 18 -1 22 5 5 9 8 9 11 0 2 -7 10 -12 17 -12z m1337
8 c-5 -7 -12 -22 -15 -33 -3 -13 -5 -9 -6 13 -1 23 3 32 15 32 12 0 14 -3 6
-12z m405 -10 c-3 -8 -6 -5 -6 6 -1 11 2 17 5 13 3 -3 4 -12 1 -19z m467 1
c-3 -6 0 -17 7 -25 10 -12 10 -15 -2 -12 -8 2 -13 -3 -11 -12 2 -11 -1 -11
-11 3 -15 18 -33 24 -22 8 3 -5 1 -12 -5 -16 -6 -4 -10 5 -10 19 0 20 5 26 21
26 14 0 19 5 16 14 -4 10 -1 13 8 9 8 -3 12 -9 9 -14z m-1159 -31 c-10 -13
-14 -16 -11 -8 3 8 9 24 13 35 4 11 8 14 11 7 2 -6 -4 -22 -13 -34z m369 27
c-4 -8 -8 -15 -10 -15 -2 0 -4 7 -4 15 0 8 4 15 10 15 5 0 7 -7 4 -15z m-769
-25 c3 -6 -1 -7 -9 -4 -18 7 -21 14 -7 14 6 0 13 -4 16 -10z m1043 -41 c-3 -8
-7 -3 -11 10 -4 17 -3 21 5 13 5 -5 8 -16 6 -23z m-361 -29 c4 -38 3 -41 -16
-31 -17 9 -18 15 -8 46 13 42 19 39 24 -15z m953 40 c0 -5 -7 -7 -15 -4 -8 4
-15 8 -15 10 0 2 7 4 15 4 8 0 15 -4 15 -10z m360 -25 c0 -5 -5 -3 -10 5 -5 8
-10 20 -10 25 0 6 5 3 10 -5 5 -8 10 -19 10 -25z m-2587 0 c-3 -9 -8 -14 -10
-11 -3 3 -2 9 2 15 9 16 15 13 8 -4z m2174 9 c-3 -3 -12 -4 -19 -1 -8 3 -5 6
6 6 11 1 17 -2 13 -5z m-3322 -14 c3 -5 1 -10 -4 -10 -6 0 -11 5 -11 10 0 6 2
10 4 10 3 0 8 -4 11 -10z m2579 -6 c3 -8 2 -12 -4 -9 -6 3 -10 10 -10 16 0 14
7 11 14 -7z m1121 6 c3 -5 1 -10 -4 -10 -6 0 -11 5 -11 10 0 6 2 10 4 10 3 0
8 -4 11 -10z m-1166 -15 c10 3 22 1 26 -5 4 -6 -7 -10 -28 -10 -23 0 -37 6
-41 16 -5 14 -4 15 8 5 8 -7 24 -10 35 -6z m141 5 c0 -5 -5 -10 -11 -10 -5 0
-7 5 -4 10 3 6 8 10 11 10 2 0 4 -4 4 -10z m107 -12 c-3 -8 -6 -5 -6 6 -1 11
2 17 5 13 3 -3 4 -12 1 -19z m-2753 4 c3 -5 -1 -9 -9 -9 -8 0 -12 4 -9 9 3 4
7 8 9 8 2 0 6 -4 9 -8z m-584 -12 c0 -5 -5 -10 -11 -10 -5 0 -7 5 -4 10 3 6 8
10 11 10 2 0 4 -4 4 -10z m617 -12 c-3 -8 -6 -5 -6 6 -1 11 2 17 5 13 3 -3 4
-12 1 -19z m591 15 c-10 -2 -26 -2 -35 0 -10 3 -2 5 17 5 19 0 27 -2 18 -5z
m99 1 c-3 -3 -12 -4 -19 -1 -8 3 -5 6 6 6 11 1 17 -2 13 -5z m323 -18 c0 -9
-50 -12 -62 -5 -8 6 1 9 25 9 20 0 37 -2 37 -4z m795 -6 c3 -6 -4 -9 -19 -8
-13 1 -22 6 -20 10 7 11 32 10 39 -2z m593 -12 c-2 -12 -10 -24 -18 -26 -13
-5 -13 -3 0 13 9 11 10 16 3 11 -13 -7 -18 6 -6 17 13 14 24 6 21 -15z m123 4
c8 -10 14 -33 13 -55 -3 -50 -14 -61 -14 -13 0 37 -2 39 -65 62 -19 6 -18 7 5
14 38 12 44 11 61 -8z m79 14 c0 -2 -7 -7 -16 -10 -8 -3 -12 -2 -9 4 6 10 25
14 25 6z m923 -15 c-9 -11 -22 -17 -29 -14 -28 11 -12 33 23 33 21 0 22 -1 6
-19z m237 5 c8 -2 -13 -4 -48 -5 -35 0 -61 3 -58 7 4 7 70 6 106 -2z m335 4
c3 -5 1 -10 -4 -10 -6 0 -11 5 -11 10 0 6 2 10 4 10 3 0 8 -4 11 -10z m-3015
-16 c0 -11 -5 -14 -16 -10 -9 3 -18 6 -20 6 -3 0 -2 5 1 10 10 16 35 12 35 -6z
m654 9 c-5 -5 -12 -12 -15 -16 -3 -5 -9 -2 -12 7 -5 12 0 16 15 16 12 0 17 -3
12 -7z m121 -3 c3 -5 -1 -10 -9 -10 -9 0 -16 5 -16 10 0 6 4 10 9 10 6 0 13
-4 16 -10z m388 3 c-7 -2 -19 -2 -25 0 -7 3 -2 5 12 5 14 0 19 -2 13 -5z m92
-3 c-3 -5 0 -10 8 -10 7 0 14 -7 14 -15 0 -19 -2 -19 -21 1 -18 18 -21 34 -5
34 5 0 7 -4 4 -10z m315 -6 c0 -8 -5 -12 -10 -9 -6 4 -8 11 -5 16 9 14 15 11
15 -7z m135 6 c-3 -5 3 -10 14 -10 12 0 21 -4 21 -9 0 -4 -11 -7 -25 -5 -14 1
-32 -4 -40 -13 -13 -13 -15 -12 -16 4 -1 10 -1 21 0 26 0 4 -6 7 -14 7 -16 0
-20 -12 -7 -24 4 -4 8 -17 9 -29 1 -12 5 -37 9 -55 5 -27 4 -31 -11 -26 -11 5
-13 10 -6 17 14 14 14 28 0 25 -7 -2 -12 11 -13 32 -2 40 -13 63 -27 55 -5 -4
-9 -2 -9 2 0 5 27 10 61 11 39 2 58 -1 54 -8z m131 -35 c3 -19 -10 -19 -26 0
-7 8 -9 15 -5 15 4 0 1 8 -6 17 -13 16 -13 16 10 0 14 -9 26 -23 27 -32z m897
38 c-7 -2 -19 -2 -25 0 -7 3 -2 5 12 5 14 0 19 -2 13 -5z m245 0 c-10 -2 -28
-2 -40 0 -13 2 -5 4 17 4 22 1 32 -1 23 -4z m-4484 -12 c3 -4 2 -11 -2 -15 -4
-4 -8 -46 -8 -92 -1 -47 -5 -88 -8 -91 -3 -4 -6 33 -6 82 0 68 -4 93 -17 107
-15 17 -15 18 10 18 14 0 28 -4 31 -9z m1991 0 c-3 -5 -1 -12 5 -16 6 -4 8
-11 4 -16 -3 -5 -8 -7 -12 -5 -4 2 -8 -23 -8 -55 -2 -58 -17 -94 -35 -83 -5 3
-9 13 -8 22 0 14 2 13 9 -3 13 -32 21 1 17 75 -3 50 0 68 12 77 19 15 24 16
16 4z m-2485 -11 c0 -5 -4 -10 -10 -10 -5 0 -10 5 -10 10 0 6 5 10 10 10 6 0
10 -4 10 -10z m1847 -3 c-4 -10 2 -13 18 -9 16 3 27 -2 35 -18 6 -12 9 -24 6
-27 -3 -3 6 -14 19 -25 20 -16 25 -29 25 -64 0 -28 -4 -43 -10 -39 -6 4 -7 11
-4 17 4 7 2 8 -5 4 -9 -6 -10 0 -6 21 l7 28 -14 -25 c-8 -14 -10 -26 -6 -28
22 -9 3 -19 -37 -20 -33 0 -45 4 -45 14 0 9 4 13 9 10 5 -3 9 12 9 34 0 22 -4
40 -9 40 -6 0 -7 -4 -4 -10 3 -5 1 -18 -4 -27 -9 -15 -10 -12 -11 15 0 20 -4
31 -10 27 -6 -4 -7 -12 -4 -18 4 -7 3 -8 -2 -4 -5 5 -9 22 -10 39 -1 22 3 32
17 35 10 3 21 14 24 24 4 10 9 19 12 19 3 0 3 -6 0 -13z m1093 1 c0 -5 3 -7 8
-5 6 4 6 -113 -1 -119 -1 -1 -22 -5 -46 -7 -25 -2 -50 -11 -56 -21 -7 -8 -16
-12 -20 -8 -5 4 -5 2 -1 -5 4 -7 14 -9 23 -6 11 4 14 3 9 -5 -13 -22 -46 -14
-46 11 0 17 -2 19 -9 7 -6 -8 -7 -18 -5 -22 3 -4 -2 -8 -10 -8 -9 0 -16 7 -16
15 0 8 4 15 8 15 5 0 9 7 9 15 0 21 -20 13 -33 -13 -16 -32 -24 -37 -17 -13 3
12 9 24 14 27 5 3 9 13 9 24 0 24 34 16 57 -14 14 -19 15 -20 8 -1 -9 23 -17
115 -11 130 4 13 126 15 126 3z m1648 -3 c4 -4 -4 -4 -18 0 -20 6 -23 5 -12
-6 16 -17 15 -26 -3 -26 -8 0 -13 2 -10 5 2 3 0 13 -5 22 -8 16 -6 18 15 15
14 -1 29 -6 33 -10z m-3996 -14 c-6 -3 -12 -17 -14 -31 -2 -14 -9 -24 -16 -22
-7 1 -12 -10 -12 -28 0 -16 5 -30 11 -30 6 0 8 9 3 23 -3 12 -3 19 1 14 5 -4
17 1 27 10 11 10 22 13 27 7 12 -11 2 -64 -11 -64 -5 0 -6 -5 -2 -11 3 -6 1
-21 -6 -34 -10 -19 -17 -22 -36 -15 -15 6 -24 6 -24 0 0 -6 -6 -10 -13 -10 -9
0 -13 14 -13 40 1 25 6 40 14 40 6 0 12 7 12 15 0 8 -5 15 -11 15 -6 0 -9 17
-7 43 2 31 7 42 20 42 9 0 20 3 23 7 4 4 14 4 22 1 8 -3 10 -8 5 -12z m102
-22 c-3 -5 -11 -9 -17 -9 -7 0 -6 4 3 10 10 6 11 10 3 10 -7 0 -13 8 -13 18 1
16 2 15 15 -2 8 -10 12 -23 9 -27z m42 22 c0 -16 -3 -17 -14 -9 -12 10 -7 19
13 28 1 0 1 -9 1 -19z m424 3 c0 -8 -4 -12 -10 -9 -5 3 -10 10 -10 16 0 5 5 9
10 9 6 0 10 -7 10 -16z m920 -53 c0 -6 -9 -11 -20 -11 -11 0 -20 -6 -21 -12 0
-7 -5 0 -10 17 -5 18 -5 31 2 35 5 4 6 15 3 26 -5 11 3 6 19 -12 15 -18 27
-37 27 -43z m185 60 c3 -5 1 -12 -5 -16 -5 -3 -10 1 -10 9 0 18 6 21 15 7z
m487 -3 c-7 -7 -12 -20 -12 -30 0 -11 -5 -15 -15 -12 -8 4 -15 10 -15 16 0 5
5 6 10 3 6 -3 10 0 10 9 0 8 6 17 13 19 20 9 22 8 9 -5z m348 -34 c0 -17 4
-23 13 -19 6 4 1 -3 -13 -15 -14 -13 -26 -17 -28 -11 -2 6 -8 11 -13 11 -6 0
-8 -4 -5 -8 3 -5 -1 -9 -9 -9 -11 0 -12 4 -4 13 8 10 7 18 -4 29 -14 13 -16
13 -19 -5 -3 -18 -4 -18 -14 4 -10 21 -9 23 4 18 10 -3 13 -1 8 6 -10 17 0 15
18 -4 15 -14 16 -14 16 4 0 26 10 33 31 21 11 -5 19 -21 19 -35z m479 16 c-7
-5 -13 -26 -13 -48 -1 -22 -5 -44 -10 -49 -5 -5 -6 0 -2 11 5 16 4 17 -9 6 -8
-7 -15 -17 -15 -23 0 -6 3 -7 7 -4 3 4 12 -1 20 -11 12 -16 13 -16 7 1 -3 9
-1 17 5 17 6 0 11 -9 11 -20 0 -11 7 -20 15 -20 8 0 15 5 15 10 0 6 -5 10 -11
10 -6 0 -9 6 -6 13 2 6 10 11 16 9 7 -1 4 8 -6 22 -10 13 -21 22 -25 19 -5 -2
-8 1 -8 7 0 7 7 10 15 6 15 -5 20 10 15 44 -1 8 1 12 5 9 3 -4 8 -23 10 -43 2
-20 8 -42 14 -49 7 -9 6 -21 -5 -43 -9 -16 -15 -30 -15 -31 5 -17 -4 -23 -29
-21 -16 1 -30 6 -30 11 0 5 -9 7 -20 4 -33 -9 -41 15 -34 101 l7 80 38 -3 c24
-2 39 1 40 8 0 7 3 6 6 -2 3 -7 0 -17 -8 -21z m828 8 c-3 -8 -6 -5 -6 6 -1 11
2 17 5 13 3 -3 4 -12 1 -19z m263 -57 c-3 -44 -9 -83 -13 -88 -5 -4 -6 10 -2
31 6 28 5 37 -4 32 -6 -4 -11 -2 -11 3 0 6 5 11 10 11 6 0 10 17 10 38 0 31 6
52 14 52 1 0 -1 -36 -4 -79z m-4027 54 c-3 -9 -8 -14 -10 -11 -3 3 -2 9 2 15
9 16 15 13 8 -4z m245 -10 c-3 -3 -9 2 -12 12 -6 14 -5 15 5 6 7 -7 10 -15 7
-18z m86 -32 c-2 -27 -3 -55 -4 -63 0 -11 -3 -11 -11 3 -6 10 -8 35 -5 55 3
21 7 42 8 49 1 7 5 10 9 8 4 -3 5 -26 3 -52z m1015 -23 l-2 -55 -8 45 c-11 66
-11 99 1 80 5 -8 9 -40 9 -70z m2848 58 c-3 -8 -6 -5 -6 6 -1 11 2 17 5 13 3
-3 4 -12 1 -19z m-4032 2 c-3 -5 -12 -10 -18 -10 -7 0 -6 4 3 10 19 12 23 12
15 0z m1780 -37 l2 -38 -13 32 c-10 24 -18 31 -31 27 -15 -5 -15 -4 -3 4 8 6
18 8 22 6 4 -3 8 0 8 7 0 29 13 -4 15 -38z m-911 20 c-16 -12 -17 -16 -5 -36
13 -20 13 -21 -2 -8 -10 7 -17 19 -17 27 0 7 -5 16 -10 19 -7 4 -9 -4 -5 -23
3 -22 0 -32 -11 -36 -21 -8 -33 2 -15 13 7 5 10 14 7 20 -4 6 -11 9 -16 6 -5
-3 -11 -1 -15 5 -8 13 27 26 72 26 31 0 33 -1 17 -13z m1124 -8 c0 -14 -4 -25
-9 -25 -10 0 -12 34 -2 43 10 10 11 9 11 -18z m1852 -2 c0 -21 -3 -24 -9 -14
-5 8 -7 20 -4 28 8 21 13 15 13 -14z m-2033 2 c0 -8 -4 -15 -9 -15 -10 0 -11
14 -1 23 9 10 10 9 10 -8z m-397 -5 c0 -5 -7 -7 -15 -4 -8 4 -15 8 -15 10 0 2
7 4 15 4 8 0 15 -4 15 -10z m310 -14 c0 6 6 11 13 11 13 0 14 -44 3 -95 -6
-24 -5 -25 7 -10 8 10 17 15 20 11 4 -3 13 0 22 7 12 10 13 16 3 29 -9 11 -7
11 9 -2 21 -18 21 -18 28 2 7 24 22 28 22 6 0 -8 -4 -12 -8 -10 -3 3 -9 -4
-12 -15 -3 -10 0 -21 6 -23 12 -4 1 -27 -14 -27 -5 0 -9 7 -9 16 0 8 -5 12
-10 9 -6 -4 -8 -11 -5 -16 4 -5 -12 -9 -34 -9 -30 0 -41 4 -41 15 0 8 -5 15
-10 15 -7 0 -7 6 0 19 13 25 13 41 0 21 -7 -11 -10 -4 -10 25 0 29 3 36 10 25
5 -8 10 -10 10 -4z m2172 -8 c-7 -7 -12 -8 -12 -2 0 14 12 26 19 19 2 -3 -1
-11 -7 -17z m-3474 -10 c-2 -13 -9 -22 -17 -20 -9 2 -11 -3 -7 -13 3 -9 2 -13
-4 -10 -6 3 -22 13 -38 21 -27 15 -27 15 16 10 34 -3 41 -2 33 8 -11 13 -5 26
11 26 5 0 8 -10 6 -22z m3522 -20 c0 -4 -4 -8 -10 -8 -5 0 -10 -15 -11 -32 0
-18 -3 -28 -5 -21 -3 7 -12 9 -20 6 -11 -4 -14 4 -14 33 0 28 3 35 9 24 6 -8
7 -18 5 -22 -3 -4 -1 -8 4 -8 12 0 25 47 17 63 -4 7 1 3 9 -7 9 -11 16 -23 16
-28z m-3480 18 c0 -8 5 -16 12 -18 8 -3 9 -6 1 -11 -5 -3 -15 5 -21 18 -7 15
-8 25 -2 25 6 0 10 -6 10 -14z m270 4 c0 -5 -5 -10 -11 -10 -5 0 -7 5 -4 10 3
6 8 10 11 10 2 0 4 -4 4 -10z m3033 -21 c3 -12 0 -19 -9 -19 -8 0 -14 6 -14
13 0 8 -4 7 -10 -3 -11 -17 -14 -1 -4 24 7 19 31 10 37 -15z m287 16 c0 -8 -2
-15 -4 -15 -2 0 -6 7 -10 15 -3 8 -1 15 4 15 6 0 10 -7 10 -15z m-3270 -5 c0
-5 -5 -10 -11 -10 -5 0 -7 5 -4 10 3 6 8 10 11 10 2 0 4 -4 4 -10z m1419 -3
c8 -10 7 -14 -4 -14 -8 0 -15 6 -15 14 0 7 2 13 4 13 2 0 9 -6 15 -13z m-294
-53 c1 -13 -3 -20 -7 -18 -4 3 -8 12 -8 20 0 8 -4 13 -9 10 -11 -7 -20 14 -14
31 7 19 38 -16 38 -43z m-2725 36 c0 -5 -5 -10 -11 -10 -5 0 -7 5 -4 10 3 6 8
10 11 10 2 0 4 -4 4 -10z m1135 -8 c-3 -3 -11 0 -18 7 -9 10 -8 11 6 5 10 -3
15 -9 12 -12z m412 -4 c-3 -8 -6 -5 -6 6 -1 11 2 17 5 13 3 -3 4 -12 1 -19z
m43 2 c0 -5 -2 -10 -4 -10 -3 0 -8 5 -11 10 -3 6 -1 10 4 10 6 0 11 -4 11 -10z
m680 -6 c0 -8 -5 -12 -10 -9 -6 4 -8 11 -5 16 9 14 15 11 15 -7z m-2283 -51
c-3 -10 -5 -4 -5 12 0 17 2 24 5 18 2 -7 2 -21 0 -30z m1143 27 c0 -5 -5 -10
-11 -10 -5 0 -7 5 -4 10 3 6 8 10 11 10 2 0 4 -4 4 -10z m80 0 c0 -5 -2 -10
-4 -10 -3 0 -8 5 -11 10 -3 6 -1 10 4 10 6 0 11 -4 11 -10z m53 -10 c-3 -11
-9 -17 -14 -15 -10 7 -1 35 11 35 5 0 6 -9 3 -20z m364 -2 c-3 -8 -6 -5 -6 6
-1 11 2 17 5 13 3 -3 4 -12 1 -19z m185 -10 c-8 -8 -9 -4 -5 13 4 13 8 18 11
10 2 -7 -1 -18 -6 -23z m506 20 c-2 -6 -10 -13 -16 -14 -7 -1 -8 0 -2 3 5 2 8
9 4 14 -3 5 0 9 6 9 7 0 10 -5 8 -12z m2485 -3 c-3 -9 -8 -14 -10 -11 -3 3 -2
9 2 15 9 16 15 13 8 -4z m-3399 -10 c-7 -16 -44 -21 -44 -6 0 8 16 16 42 20 4
0 5 -6 2 -14z m981 5 c3 -5 1 -10 -4 -10 -6 0 -11 5 -11 10 0 6 2 10 4 10 3 0
8 -4 11 -10z m-1395 -36 c0 -14 -4 -22 -10 -19 -5 3 -10 17 -10 31 0 14 4 22
10 19 6 -3 10 -17 10 -31z m595 27 c3 -5 1 -12 -5 -16 -5 -3 -10 1 -10 9 0 18
6 21 15 7z m3099 -42 c-2 -4 0 -10 6 -14 13 -8 13 -85 -1 -85 -5 0 -7 -5 -3
-12 4 -7 3 -8 -5 -4 -9 6 -9 11 -1 21 6 7 7 16 2 19 -5 3 -9 29 -9 57 -1 32 2
47 7 38 5 -7 7 -16 4 -20z m146 21 c0 -5 -7 -10 -16 -10 -8 0 -12 5 -9 10 3 6
10 10 16 10 5 0 9 -4 9 -10z m-3340 -10 c0 -5 -5 -10 -11 -10 -5 0 -7 5 -4 10
3 6 8 10 11 10 2 0 4 -4 4 -10z m770 0 c13 -8 13 -10 -2 -10 -21 0 -27 -18
-17 -54 6 -21 5 -32 -3 -37 -20 -13 -28 0 -28 46 0 31 -5 47 -17 54 -15 9 -12
10 17 11 19 0 42 -5 50 -10z m1199 -21 c-22 -13 -3 -22 23 -9 22 11 22 10 4
-4 -11 -9 -24 -16 -28 -16 -16 0 -20 30 -7 46 10 12 14 13 17 4 3 -7 -2 -16
-9 -21z m1165 17 c-3 -8 -12 -12 -20 -9 -17 6 -9 23 11 23 8 0 12 -6 9 -14z
m118 -34 c-8 -2 -9 -18 -5 -48 5 -38 3 -44 -12 -44 -15 0 -17 7 -13 55 3 31 1
55 -5 55 -5 0 -4 7 3 15 11 14 15 13 28 -7 11 -15 12 -23 4 -26z m38 38 c0 -5
-4 -10 -10 -10 -5 0 -10 5 -10 10 0 6 5 10 10 10 6 0 10 -4 10 -10z m225 0 c3
-6 -1 -7 -9 -4 -18 7 -21 14 -7 14 6 0 13 -4 16 -10z m-3760 -10 c3 -5 -1 -10
-9 -10 -9 0 -16 5 -16 10 0 6 4 10 9 10 6 0 13 -4 16 -10z m175 0 c0 -5 -9
-10 -19 -10 -11 0 -23 5 -26 10 -4 6 5 10 19 10 14 0 26 -4 26 -10z m278 -17
c1 -16 4 -52 8 -82 4 -35 3 -51 -4 -47 -6 3 -8 14 -5 24 2 11 -7 28 -26 45
-35 30 -40 49 -13 45 12 -2 17 3 16 20 0 12 5 22 11 22 7 0 13 -12 13 -27z
m1035 15 c-5 -7 -10 -28 -12 -47 -2 -19 -7 -44 -11 -55 -7 -18 -9 -16 -9 12
-1 18 4 42 9 53 9 16 7 19 -12 20 -17 1 -18 3 -5 6 9 2 17 9 17 14 0 5 7 9 16
9 11 0 14 -4 7 -12z m-1589 -14 c3 -8 2 -12 -4 -9 -6 3 -10 10 -10 16 0 14 7
11 14 -7z m297 -18 c-6 -7 -9 -22 -5 -32 5 -18 5 -18 -10 0 -20 25 -21 46 -1
46 8 0 15 6 16 13 0 9 2 9 6 -1 3 -7 0 -19 -6 -26z m151 -13 c6 -7 5 -14 -2
-18 -5 -3 -10 -1 -10 4 0 6 -7 11 -15 11 -12 0 -13 4 -2 27 10 23 12 24 16 7
2 -10 7 -24 13 -31z m144 22 c-3 -9 -11 -13 -16 -10 -8 5 -7 11 1 21 14 18 24
11 15 -11z m1678 10 c-7 -16 -24 -21 -24 -6 0 8 7 13 27 20 1 1 0 -6 -3 -14z
m232 0 c9 -8 11 -15 5 -15 -6 0 -11 -7 -11 -15 0 -8 -5 -15 -11 -15 -6 0 -8 8
-5 18 4 13 1 18 -14 18 -11 0 -20 -7 -21 -16 0 -10 -2 -11 -6 -2 -2 6 -9 10
-14 6 -11 -6 -11 -2 -3 20 8 20 60 21 80 1z m-796 -11 c0 9 5 14 10 11 18 -11
11 -35 -10 -35 -11 0 -20 5 -20 10 0 6 -7 10 -15 10 -8 0 -15 -5 -15 -11 0 -5
-5 -7 -11 -4 -6 5 -4 12 8 20 15 11 21 11 36 -2 16 -15 17 -15 17 1z m690 12
c0 -2 -7 -7 -16 -10 -8 -3 -12 -2 -9 4 6 10 25 14 25 6z m1250 -6 c0 -5 -5
-10 -11 -10 -5 0 -7 5 -4 10 3 6 8 10 11 10 2 0 4 -4 4 -10z m21 -19 c-16 -12
-20 -21 -12 -25 6 -4 11 -16 11 -27 0 -11 5 -17 10 -14 6 3 10 1 10 -4 0 -6
-13 -11 -30 -11 -16 0 -30 5 -30 10 0 6 5 10 12 10 6 0 3 7 -8 15 -18 14 -18
16 16 44 19 16 37 27 40 25 2 -3 -6 -13 -19 -23z m-3431 12 c-1 -20 -22 -38
-45 -38 -24 -1 -25 0 -9 12 10 7 16 13 13 14 -57 10 -59 15 -4 17 25 1 45 -1
45 -5z m98 -5 c-4 -19 -22 -36 -31 -31 -5 3 -1 14 9 24 20 22 25 24 22 7z
m3562 2 c0 -5 -2 -10 -4 -10 -3 0 -8 5 -11 10 -3 6 -1 10 4 10 6 0 11 -4 11
-10z m-3986 -25 c-4 -8 -8 -15 -10 -15 -2 0 -4 7 -4 15 0 8 4 15 10 15 5 0 7
-7 4 -15z m-37 -60 c-4 -8 -11 -15 -17 -15 -6 0 -6 7 2 20 14 22 24 19 15 -5z
m65 1 c7 4 8 2 4 -5 -9 -13 -26 -5 -25 12 0 9 2 8 6 -1 2 -6 10 -9 15 -6z
m608 7 c-1 -18 -18 -35 -24 -24 -4 6 -4 16 -1 21 7 12 25 13 25 3z m3350 -34
c0 -5 -7 -6 -15 -3 -8 4 -15 13 -15 21 0 13 3 13 15 3 8 -7 15 -16 15 -21z
m-3620 -39 c6 -11 8 -20 6 -20 -3 0 -10 9 -16 20 -6 11 -8 20 -6 20 3 0 10 -9
16 -20z m2160 -4 c0 -3 -4 -8 -10 -11 -5 -3 -10 -1 -10 4 0 6 5 11 10 11 6 0
10 -2 10 -4z m-940 -16 c0 -5 -4 -10 -10 -10 -5 0 -10 5 -10 10 0 6 5 10 10
10 6 0 10 -4 10 -10z m910 -11 c0 -5 -7 -9 -15 -9 -15 0 -20 12 -9 23 8 8 24
-1 24 -14z m-90 1 c0 -5 -2 -10 -4 -10 -3 0 -8 5 -11 10 -3 6 -1 10 4 10 6 0
11 -4 11 -10z m130 -10 c0 -5 -2 -10 -4 -10 -3 0 -8 5 -11 10 -3 6 -1 10 4 10
6 0 11 -4 11 -10z m1770 -21 c0 -5 -5 -7 -12 -3 -6 4 -8 3 -5 -2 3 -5 7 -49 8
-98 3 -85 17 -125 39 -111 5 3 11 1 15 -5 7 -11 -9 -13 -54 -4 -17 4 -31 11
-31 16 0 5 5 6 10 3 16 -10 12 108 -5 148 -21 50 -19 62 10 65 14 1 25 -3 25
-9z m40 -1 c0 -9 4 -8 10 2 6 10 10 11 10 3 0 -7 7 -13 15 -13 8 0 15 -9 15
-19 0 -11 10 -27 23 -36 20 -15 20 -16 2 -13 -11 3 -33 -2 -49 -10 -28 -13
-31 -13 -47 7 -14 17 -16 28 -8 54 5 17 9 33 9 34 0 2 5 3 10 3 6 0 10 -6 10
-12z m-2856 -4 c12 -5 13 -9 3 -19 -9 -9 -14 -10 -19 -1 -16 23 -10 30 16 20z
m1460 -14 c-22 -9 -29 -6 -20 9 4 6 14 7 23 4 15 -6 14 -7 -3 -13z m160 3 c4
-9 1 -20 -6 -24 -7 -4 -18 -23 -25 -41 l-12 -33 2 30 c1 17 6 33 11 37 12 8
17 38 6 38 -5 0 -11 -6 -13 -12 -3 -8 -6 -6 -6 5 -1 22 35 23 43 0z m-1536 1
c24 -7 31 -24 9 -24 -15 0 -57 29 -42 30 6 0 20 -3 33 -6z m928 -12 c-3 -3 -1
-11 5 -19 9 -9 8 -13 0 -13 -6 0 -11 -5 -11 -11 0 -8 4 -9 13 0 8 6 18 7 23 3
4 -4 3 1 -4 10 -11 14 -10 18 7 27 25 14 53 15 32 2 -8 -5 -11 -16 -8 -25 8
-21 -37 -56 -66 -51 -21 4 -21 3 -4 -9 12 -10 15 -16 7 -21 -6 -4 -9 -13 -6
-20 3 -9 -8 -16 -32 -21 -80 -17 -74 -23 -76 83 -1 57 1 64 22 71 25 8 107 3
98 -6z m501 1 c0 -9 -4 -10 -14 -2 -7 6 -13 12 -13 14 0 1 6 2 13 2 8 0 14 -6
14 -14z m46 -28 c-3 -8 -10 -15 -15 -15 -7 0 -6 5 1 13 6 8 7 18 3 22 -4 5 -2
5 5 1 7 -4 10 -13 6 -21z m-63 -30 c0 -5 -5 -3 -10 5 -5 8 -10 20 -10 25 0 6
5 3 10 -5 5 -8 10 -19 10 -25z m-1480 -27 c0 -12 -6 -9 -26 13 -19 22 -19 22
4 8 12 -8 22 -17 22 -21z m2925 -39 c0 -44 -1 -46 -30 -47 -23 -1 -37 7 -57
32 -25 31 -25 33 -8 44 10 6 28 9 39 7 12 -2 21 -1 21 3 0 4 8 8 18 8 14 0 17
-9 17 -47z m-1369 -3 c2 -20 -1 -38 -7 -41 -8 -6 -14 17 -9 40 1 5 2 18 3 27
2 27 9 12 13 -26z m-29 12 c-3 -8 -6 -5 -6 6 -1 11 2 17 5 13 3 -3 4 -12 1
-19z m67 8 c-3 -8 0 -17 5 -21 6 -3 9 -11 6 -16 -4 -5 -1 -9 4 -9 6 0 11 -5
11 -11 0 -6 -10 -9 -22 -7 -13 2 -21 5 -19 8 2 3 -1 16 -8 29 -8 14 -9 21 -2
17 6 -4 11 0 11 8 0 9 4 16 10 16 5 0 7 -6 4 -14z m1115 -8 c10 -18 11 -20 0
-10 -7 6 -22 12 -33 12 -17 0 -18 2 -6 10 21 14 23 13 39 -12z m-1699 -9 c0
-5 4 -8 9 -4 13 8 21 -8 12 -24 -6 -10 -12 -9 -25 4 -18 18 -21 35 -6 35 6 0
10 -5 10 -11z m1233 -28 c-4 -14 -11 -20 -20 -17 -8 3 -24 6 -36 6 -21 1 -21
1 -3 15 16 12 22 12 35 2 12 -10 13 -9 6 2 -5 10 -4 12 3 7 7 -4 12 -2 12 5 0
7 2 10 5 8 2 -3 2 -15 -2 -28z m527 9 c0 -5 -2 -10 -4 -10 -3 0 -8 5 -11 10
-3 6 -1 10 4 10 6 0 11 -4 11 -10z m-2690 -32 c0 -5 -22 -8 -50 -8 -27 0 -50
4 -50 10 0 5 22 8 50 7 27 -1 50 -5 50 -9z m2317 -22 c-2 -6 -12 -9 -23 -8
-10 2 -23 -4 -30 -13 -8 -11 -14 -13 -19 -5 -4 6 -2 16 3 23 13 15 74 18 69 3z
m326 3 c-7 -7 -24 -8 -54 -1 l-44 10 55 1 c39 1 51 -2 43 -10z m-5493 -18 c0
-6 -9 -9 -20 -8 -11 1 -20 5 -20 9 0 4 9 8 20 8 11 0 20 -4 20 -9z m876 -26
c-1 -19 -5 -35 -9 -35 -14 0 -25 44 -15 58 17 21 25 14 24 -23z m3502 22 c-7
-7 -22 -17 -33 -21 -20 -7 -20 -7 0 13 11 11 26 20 33 20 11 1 11 -1 0 -12z
m1196 7 c9 -3 16 -12 16 -20 0 -8 5 -14 10 -14 6 0 10 7 10 15 0 8 5 15 10 15
6 0 10 -7 10 -15 0 -8 9 -15 20 -15 23 0 25 -8 5 -33 -7 -11 -11 -26 -8 -35 5
-11 2 -14 -10 -9 -17 6 -23 -12 -17 -53 1 -10 -3 -9 -14 5 -17 22 -21 45 -7
45 5 0 7 9 4 19 -3 12 -11 17 -19 14 -8 -3 -14 0 -14 7 0 6 -4 8 -10 5 -5 -3
-10 1 -10 9 0 9 -5 15 -11 14 -6 -2 -18 7 -26 20 -14 20 -14 22 1 16 9 -3 16
-1 16 5 0 12 20 14 44 5z m126 -9 c0 -18 -26 -20 -36 -3 -4 7 -3 8 4 4 7 -4
12 -2 12 3 0 6 5 11 10 11 6 0 10 -7 10 -15z m-1378 -30 c-3 -21 0 -35 7 -35
6 0 11 7 11 15 0 8 6 15 14 15 10 0 14 -13 13 -49 -2 -38 -5 -47 -14 -39 -9 7
-13 7 -13 -2 0 -10 -3 -10 -15 0 -16 13 -22 130 -7 130 4 0 6 -16 4 -35z
m-772 -6 c0 -5 -4 -8 -9 -5 -5 4 -11 0 -14 -6 -2 -7 -8 -9 -13 -5 -5 4 -2 12
6 17 20 13 30 12 30 -1z m-681 -49 c-2 -27 -6 -50 -11 -50 -4 0 -6 15 -4 33 2
17 4 40 5 50 0 9 3 17 6 17 4 0 5 -22 4 -50z m2814 0 c-3 -11 -9 -17 -15 -14
-5 3 -4 12 3 20 16 19 18 18 12 -6z m-2067 -16 c-7 -19 24 -48 37 -35 17 17
24 13 29 -12 6 -33 -31 -33 -55 -1 -20 27 -31 78 -15 68 5 -3 7 -12 4 -20z
m1934 -24 c5 0 7 -7 3 -16 -9 -23 -23 3 -21 41 l1 30 4 -27 c2 -16 8 -28 13
-28z m-5565 10 c3 -5 1 -10 -4 -10 -6 0 -11 5 -11 10 0 6 2 10 4 10 3 0 8 -4
11 -10z m3615 -21 c0 -10 -4 -19 -10 -19 -5 0 -10 12 -10 26 0 14 4 23 10 19
6 -3 10 -15 10 -26z m2050 17 c0 -3 -4 -8 -10 -11 -5 -3 -10 -1 -10 4 0 6 5
11 10 11 6 0 10 -2 10 -4z m-119 -38 c11 -20 11 -20 -15 -2 -28 21 -34 37 -11
28 9 -4 20 -15 26 -26z m53 16 c3 -8 2 -12 -4 -9 -6 3 -10 10 -10 16 0 14 7
11 14 -7z m116 -5 c0 -5 -4 -8 -9 -5 -5 4 -12 0 -14 -6 -3 -8 -6 -6 -6 5 -1 9
6 17 14 17 8 0 15 -5 15 -11z m-1340 -9 c0 -5 -2 -10 -4 -10 -3 0 -8 5 -11 10
-3 6 -1 10 4 10 6 0 11 -4 11 -10z m1204 -65 c4 -14 5 -29 2 -33 -2 -4 -1 -35
3 -69 6 -48 4 -63 -6 -67 -10 -4 -13 9 -15 52 -2 102 -3 111 -13 121 -6 5 -21
11 -35 14 -16 3 -11 5 16 6 37 1 43 -2 48 -24z m-1830 -14 c4 -5 1 -20 -4 -33
-10 -21 -10 -20 -5 6 6 26 4 28 -10 16 -13 -11 -15 -10 -9 4 7 18 20 21 28 7z
m-567 -158 c-3 -10 -5 -4 -5 12 0 17 2 24 5 18 2 -7 2 -21 0 -30z m583 -14 c0
-5 -4 -9 -10 -9 -5 0 -10 7 -10 16 0 8 5 12 10 9 6 -3 10 -10 10 -16z m1867
-1 c-3 -8 -6 -5 -6 6 -1 11 2 17 5 13 3 -3 4 -12 1 -19z m-1827 -8 c0 -5 -2
-10 -4 -10 -3 0 -8 5 -11 10 -3 6 -1 10 4 10 6 0 11 -4 11 -10z m1760 -20 c0
-5 -4 -10 -10 -10 -5 0 -10 5 -10 10 0 6 5 10 10 10 6 0 10 -4 10 -10z m106
-7 c-11 -11 -96 -12 -96 -2 0 5 23 9 52 9 28 0 48 -3 44 -7z m47 0 c-7 -2 -19
-2 -25 0 -7 3 -2 5 12 5 14 0 19 -2 13 -5z m-1767 -12 c-3 -4 -6 -47 -7 -95
-1 -70 -4 -84 -15 -76 -7 7 -12 17 -10 23 1 7 1 9 -1 5 -3 -5 -9 -8 -14 -8 -6
0 -7 5 -4 10 3 6 4 10 1 10 -18 0 -13 -24 9 -44 l26 -24 -102 -1 -101 -1 4 27
c8 44 12 58 23 66 6 4 6 10 -2 15 -8 5 -10 22 -6 50 5 40 7 42 40 42 19 0 43
-5 54 -10 14 -8 19 -7 19 2 0 9 3 9 10 -2 8 -13 10 -13 10 0 0 11 3 11 12 2 9
-9 9 -15 0 -24 -21 -21 -13 -29 13 -12 14 9 22 20 19 25 -7 11 4 29 17 29 6 0
8 -4 5 -9z m1604 -7 c0 -2 -17 -4 -37 -3 -33 1 -35 2 -13 8 23 7 50 4 50 -5z
m-5056 -36 c-10 -63 -27 -74 -21 -13 6 60 5 55 17 55 6 0 8 -16 4 -42z m3528
-21 c7 -12 12 -26 13 -32 0 -5 10 -11 23 -13 13 -2 38 -19 57 -38 19 -19 41
-34 49 -34 8 0 18 -4 21 -10 4 -6 -18 -10 -59 -10 -37 0 -66 -4 -66 -10 0 -5
6 -10 13 -10 7 0 8 -3 2 -8 -12 -9 -15 -52 -3 -52 4 0 8 9 8 21 0 19 4 21 48
16 26 -3 48 -6 49 -6 3 -1 -4 -46 -7 -46 -1 0 -3 -12 -4 -27 -2 -27 -34 -61
-48 -52 -5 3 -3 -7 2 -22 6 -15 8 -35 5 -43 -5 -13 -10 -12 -26 8 l-20 24 -6
-22 c-11 -44 -28 -14 -31 55 -2 77 -9 114 -20 114 -4 0 -5 -40 -2 -90 5 -83 4
-90 -14 -90 -12 0 -16 5 -12 16 4 11 1 14 -12 12 -9 -2 -17 -10 -17 -18 0 -12
-14 -15 -68 -14 -59 2 -71 5 -92 28 -13 14 -26 22 -30 17 -3 -5 1 -11 7 -14
10 -3 10 -7 -1 -20 -16 -21 -46 -7 -57 25 -5 17 1 28 27 51 31 26 32 28 10 23
-45 -10 -67 46 -31 79 15 14 20 15 20 4 0 -11 2 -11 9 -1 6 10 36 13 109 13
56 0 104 5 107 10 4 5 21 9 38 10 l32 1 -36 11 -35 12 -3 88 c-2 86 -1 88 18
77 11 -6 26 -20 33 -33z m-822 14 c12 -24 2 -60 -11 -39 -7 10 -9 9 -9 -4 0
-9 5 -20 11 -23 13 -9 -15 -41 -42 -48 -10 -3 -19 -4 -19 -2 0 2 -3 12 -6 22
-6 15 -4 16 7 6 19 -18 34 -16 18 3 -11 13 -9 15 17 10 25 -5 25 -4 -6 7 -24
10 -30 16 -20 20 12 4 11 6 -2 6 -19 1 -26 21 -7 21 5 0 8 4 4 9 -3 5 -1 12 5
16 5 3 10 1 10 -4 0 -6 7 -11 15 -11 8 0 14 3 14 8 -4 27 7 29 21 3z m-2846 1
c2 -4 -3 -16 -11 -27 -11 -14 -17 -16 -20 -7 -3 6 -9 10 -14 6 -5 -3 -9 1 -9
10 0 20 43 36 54 18z m218 -36 c8 5 9 2 5 -9 -3 -10 -2 -17 3 -17 6 0 10 5 10
11 0 5 4 8 9 5 5 -4 12 0 14 6 4 9 6 8 6 -2 1 -18 -42 -40 -58 -31 -6 4 -13
23 -16 41 -5 30 -4 32 5 12 6 -14 14 -20 22 -16z m4522 28 c20 -8 20 -33 0
-62 -19 -27 -34 -28 -34 -2 0 11 -5 20 -10 20 -6 0 -3 11 7 25 21 28 17 27 37
19z m-3398 -59 c-3 -8 -1 -15 5 -15 6 0 8 -7 5 -16 -5 -12 -2 -15 13 -11 14 3
17 0 13 -15 -4 -15 -7 -17 -13 -6 -6 9 -9 7 -9 -9 0 -23 -23 -32 -35 -13 -3 6
2 10 11 10 13 0 15 3 7 11 -8 8 -17 8 -30 1 -12 -7 -25 -7 -34 -1 -11 7 -8 9
11 10 22 0 23 1 5 8 -19 8 -19 8 3 20 12 6 22 18 22 26 0 8 7 15 16 15 10 0
14 -6 10 -15z m-36 -5 c0 -5 -5 -10 -11 -10 -5 0 -7 5 -4 10 3 6 8 10 11 10 2
0 4 -4 4 -10z m1636 -56 c-3 -7 3 -10 15 -7 11 3 19 0 19 -7 0 -8 -12 -10 -42
-4 -24 4 -54 8 -68 8 -29 1 -41 13 -33 33 4 10 14 12 29 9 20 -5 24 -3 24 16
0 21 1 21 30 -7 17 -16 28 -35 26 -41z m-1707 49 c-3 -20 2 -26 12 -13 8 12 9
10 7 -9 -2 -18 -10 -25 -31 -27 -15 -1 -25 1 -22 6 3 4 0 10 -6 12 -8 3 -6 10
5 21 18 18 37 23 35 10z m947 -22 c-1 -24 -4 -27 -18 -20 -15 8 -16 13 -5 29
17 28 24 25 23 -9z m-2056 -5 c0 -14 -4 -27 -9 -30 -4 -3 -8 8 -7 24 1 36 16
41 16 6z m128 -1 c-3 -3 -9 2 -12 12 -6 14 -5 15 5 6 7 -7 10 -15 7 -18z m-31
-17 c-3 -8 -6 -5 -6 6 -1 11 2 17 5 13 3 -3 4 -12 1 -19z m2034 12 c20 -11 27
-40 9 -40 -5 0 -10 6 -10 14 0 8 -5 18 -10 21 -7 4 -9 -3 -4 -22 6 -27 6 -27
-9 -8 -8 10 -13 25 -10 32 6 16 9 16 34 3z m2159 -5 c0 -8 -2 -15 -4 -15 -2 0
-6 7 -10 15 -3 8 -1 15 4 15 6 0 10 -7 10 -15z m-3575 -4 c3 -5 1 -12 -5 -16
-5 -3 -10 1 -10 9 0 18 6 21 15 7z m3600 -20 c-6 -21 -25 -29 -25 -11 0 6 5
10 10 10 6 0 10 8 10 17 0 9 3 14 6 10 3 -3 3 -15 -1 -26z m-2975 3 c0 -8 -5
-12 -10 -9 -6 4 -8 11 -5 16 9 14 15 11 15 -7z m1320 -6 c0 -6 -6 -5 -15 2 -8
7 -15 14 -15 16 0 2 7 1 15 -2 8 -4 15 -11 15 -16z m1774 -3 c-4 -8 -8 -15
-10 -15 -2 0 -4 7 -4 15 0 8 4 15 10 15 5 0 7 -7 4 -15z m47 -29 c-7 -8 -9
-21 -5 -27 4 -7 3 -9 -4 -5 -10 6 -29 -14 -78 -83 l-24 -35 0 34 c0 28 9 42
57 86 31 29 59 51 61 49 3 -3 -1 -11 -7 -19z m-1747 3 c-3 -6 -8 -34 -10 -62
-2 -29 -6 -65 -9 -82 -5 -23 -4 -26 4 -15 9 12 11 10 11 -13 0 -22 -7 -31 -32
-41 -33 -14 -88 -4 -88 16 0 5 -4 7 -9 4 -5 -3 -9 0 -8 7 1 41 -2 45 -27 34
-13 -7 -23 -14 -21 -18 2 -3 -2 -6 -10 -6 -8 0 -11 5 -8 10 3 5 -1 13 -8 18
-7 4 -10 12 -5 16 5 4 11 2 13 -4 3 -7 9 -13 15 -13 7 0 7 5 -1 13 -14 17 -4
28 17 19 14 -5 15 -4 2 10 -13 15 -16 15 -27 1 -18 -24 -36 -6 -18 19 8 13 12
32 9 45 -5 17 -2 23 11 23 13 0 16 -6 11 -25 -4 -15 -2 -25 4 -25 6 0 9 4 6 9
-8 13 65 31 102 25 26 -4 37 0 55 20 23 27 33 34 21 15z m-1661 -31 c-13 -12
-26 -19 -29 -15 -4 4 1 14 12 22 29 22 41 18 17 -7z m153 6 c-3 -9 -6 -59 -7
-112 0 -59 -3 -89 -8 -77 -5 11 -7 46 -6 78 2 38 -2 63 -11 71 -7 8 -10 17 -6
21 4 4 8 11 8 16 3 18 4 19 20 19 11 0 14 -5 10 -16z m748 -79 c7 -96 4 -116
-17 -114 -9 0 -9 2 0 6 16 6 6 150 -11 172 -9 12 -8 13 3 6 11 -6 13 -4 8 8
-3 10 -3 17 2 17 5 0 11 -43 15 -95z m-2055 82 c-2 -1 -11 -8 -20 -15 -14 -10
-18 -10 -23 3 -4 11 1 15 21 15 14 0 24 -1 22 -3z m98 -19 c-3 -8 -6 -5 -6 6
-1 11 2 17 5 13 3 -3 4 -12 1 -19z m583 10 c3 -4 26 -8 52 -9 26 -2 45 -6 42
-11 -3 -4 5 -7 16 -5 28 3 58 -37 38 -49 -7 -4 -10 -4 -6 1 15 16 -11 42 -37
38 -14 -3 -25 -1 -25 4 0 6 -13 10 -30 9 -16 -1 -30 -4 -30 -8 0 -5 -5 -8 -11
-8 -5 0 -8 4 -5 9 4 5 -4 7 -16 3 -14 -3 -19 -1 -14 6 4 7 -1 10 -14 7 -22 -4
-28 10 -7 18 16 7 41 4 47 -5z m-740 -8 c0 -5 -4 -10 -10 -10 -5 0 -10 5 -10
10 0 6 5 10 10 10 6 0 10 -4 10 -10z m1255 0 c3 -5 2 -10 -4 -10 -5 0 -13 5
-16 10 -3 6 -2 10 4 10 5 0 13 -4 16 -10z m989 -47 c34 -39 38 -71 14 -104
-12 -15 -25 -26 -30 -23 -4 3 -8 0 -8 -5 0 -6 -7 -11 -16 -11 -8 0 -12 5 -9
10 3 6 1 10 -4 10 -6 0 -11 -4 -11 -8 0 -5 -7 -9 -15 -9 -9 0 -14 5 -12 11 2
6 8 11 13 11 5 0 15 4 22 8 7 5 21 5 32 2 11 -4 20 -2 20 4 0 6 -5 10 -12 9
-7 -2 -12 10 -13 29 0 18 -6 38 -13 45 -11 11 -12 9 -7 -7 5 -16 5 -17 -3 -5
-6 8 -7 19 -2 25 9 11 10 14 10 48 1 21 1 21 12 3 6 -10 20 -30 32 -43z m12
42 c-10 -8 -24 -11 -29 -8 -6 4 -2 10 9 14 31 12 40 9 20 -6z m394 5 c0 -5 -5
-10 -11 -10 -5 0 -7 5 -4 10 3 6 8 10 11 10 2 0 4 -4 4 -10z m1810 6 c0 -3 -4
-8 -10 -11 -5 -3 -10 -1 -10 4 0 6 5 11 10 11 6 0 10 -2 10 -4z m-2440 -21 c4
3 10 -6 12 -20 6 -30 -8 -34 -17 -5 -3 11 -11 20 -16 20 -6 0 -7 5 -3 12 6 9
9 9 12 0 2 -7 7 -10 12 -7z m-2533 -27 c-3 -7 -5 -2 -5 12 0 14 2 19 5 13 2
-7 2 -19 0 -25z m2019 1 c-3 -17 -1 -39 4 -49 8 -15 5 -19 -16 -23 -24 -4 -25
-3 -19 33 4 23 2 41 -4 45 -16 9 -3 25 21 25 18 0 20 -4 14 -31z m468 23 c3
-5 -1 -9 -9 -9 -8 0 -15 4 -15 9 0 4 4 8 9 8 6 0 12 -4 15 -8z m2760 -7 c-4
-8 -10 -15 -15 -15 -4 0 -6 7 -3 15 4 8 10 15 15 15 4 0 6 -7 3 -15z m-3315
-40 c0 -5 -4 -3 -9 5 -5 8 -9 22 -9 30 0 16 17 -16 18 -35z m132 -3 c-6 -2
-11 -11 -10 -20 0 -11 2 -12 6 -4 8 21 20 13 16 -12 -3 -16 -13 -26 -29 -29
-13 -2 -24 0 -24 4 0 5 6 9 14 9 14 0 16 46 2 68 -5 8 -2 10 8 6 10 -4 16 -1
17 7 1 8 4 5 6 -6 3 -10 0 -21 -6 -23z m1060 15 c-13 -13 -26 -3 -16 12 3 6
11 8 17 5 6 -4 6 -10 -1 -17z m-2674 -9 c-3 -8 -6 -5 -6 6 -1 11 2 17 5 13 3
-3 4 -12 1 -19z m1517 11 c-3 -6 0 -15 7 -20 9 -6 10 -9 2 -9 -15 0 -26 17
-18 30 3 6 8 10 11 10 3 0 2 -5 -2 -11z m496 -9 c0 -13 -5 -18 -15 -14 -12 5
-13 10 -4 20 15 19 19 18 19 -6z m217 -22 c-3 -7 -5 -2 -5 12 0 14 2 19 5 13
2 -7 2 -19 0 -25z m2569 23 c-3 -5 -1 -24 6 -42 9 -25 9 -34 0 -37 -7 -2 -10
-7 -7 -12 3 -4 -4 -6 -16 -3 -12 3 -18 11 -15 19 3 8 2 14 -2 14 -5 0 -8 16
-9 35 -1 31 2 35 24 35 13 0 22 -4 19 -9z m-3409 -23 c-3 -8 -6 -5 -6 6 -1 11
2 17 5 13 3 -3 4 -12 1 -19z m268 2 c3 -11 3 -24 0 -30 -3 -6 4 -10 17 -10 17
0 20 -2 9 -9 -19 -12 -43 -2 -37 16 3 8 1 23 -4 34 -7 12 -7 19 -1 19 5 0 12
-9 16 -20z m375 -4 c0 -2 -8 -10 -17 -17 -16 -13 -17 -12 -4 4 13 16 21 21 21
13z m60 0 c0 -2 -8 -10 -17 -17 -16 -13 -17 -12 -4 4 13 16 21 21 21 13z m527
-21 c0 -8 -4 -15 -9 -15 -4 0 -8 7 -8 15 0 8 4 15 8 15 5 0 9 -7 9 -15z m2340
9 c-3 -3 -12 -4 -19 -1 -8 3 -5 6 6 6 11 1 17 -2 13 -5z m-4099 -29 c-3 -3 -9
2 -12 12 -6 14 -5 15 5 6 7 -7 10 -15 7 -18z m1132 -10 c0 -5 -5 -3 -10 5 -5
8 -10 20 -10 25 0 6 5 3 10 -5 5 -8 10 -19 10 -25z m273 20 c-3 -9 -8 -14 -10
-11 -3 3 -2 9 2 15 9 16 15 13 8 -4z m2744 -7 c-3 -8 -6 -5 -6 6 -1 11 2 17 5
13 3 -3 4 -12 1 -19z m-4066 -55 c-10 -17 -10 -17 -11 2 0 11 4 31 8 45 l7 25
3 -27 c2 -15 -1 -35 -7 -45z m-951 44 c0 -7 -8 -17 -18 -24 -15 -9 -19 -8 -19
3 0 7 4 11 9 8 4 -3 8 2 8 10 0 9 5 16 10 16 6 0 10 -6 10 -13z m4657 -19 c-3
-8 -6 -5 -6 6 -1 11 2 17 5 13 3 -3 4 -12 1 -19z m398 -8 c3 -6 -1 -7 -9 -4
-18 7 -21 14 -7 14 6 0 13 -4 16 -10z m-3445 -15 c11 -13 8 -15 -21 -14 -24 1
-27 3 -11 6 12 2 20 9 17 14 -10 15 1 10 15 -6z m950 -30 c0 -5 -5 -3 -10 5
-5 8 -10 20 -10 25 0 6 5 3 10 -5 5 -8 10 -19 10 -25z m970 25 c0 -5 -5 -10
-11 -10 -5 0 -7 5 -4 10 3 6 8 10 11 10 2 0 4 -4 4 -10z m-1867 -7 c-7 -2 -19
-2 -25 0 -7 3 -2 5 12 5 14 0 19 -2 13 -5z m1074 1 c-3 -3 -12 -4 -19 -1 -8 3
-5 6 6 6 11 1 17 -2 13 -5z m1097 -16 c3 3 6 0 6 -7 0 -9 -8 -11 -24 -7 -14 3
-27 2 -31 -3 -3 -5 4 -12 15 -14 18 -4 18 -5 -1 -3 -14 1 -23 9 -25 23 -3 19
-1 21 25 13 16 -4 32 -6 35 -2z m-211 -18 c10 -12 9 -12 -4 -2 -18 14 -30 6
-22 -14 3 -8 0 -14 -6 -14 -6 0 -8 -7 -5 -15 4 -8 1 -15 -6 -15 -8 0 -10 8 -7
21 8 31 -2 48 -24 42 -11 -3 -19 0 -19 6 0 16 77 8 93 -9z m37 10 c0 -5 -4
-10 -10 -10 -5 0 -10 5 -10 10 0 6 5 10 10 10 6 0 10 -4 10 -10z m104 -22 c9
-17 14 -33 11 -36 -2 -2 -10 7 -16 22 -13 27 -35 37 -25 11 7 -20 -3 -45 -20
-45 -8 0 -11 6 -7 17 4 10 2 14 -4 10 -16 -10 -24 18 -10 33 9 10 9 11 0 6 -6
-3 -14 -2 -18 4 -4 6 9 10 34 10 34 0 42 -4 55 -32z m-254 18 c0 -3 -4 -8 -10
-11 -5 -3 -10 -1 -10 4 0 6 5 11 10 11 6 0 10 -2 10 -4z m640 -17 c0 -5 -7 -9
-15 -9 -15 0 -20 12 -9 23 8 8 24 -1 24 -14z m35 11 c3 -6 -1 -7 -9 -4 -18 7
-21 14 -7 14 6 0 13 -4 16 -10z m135 -10 c11 -11 16 -20 12 -20 -5 0 -17 9
-27 20 -10 11 -15 20 -12 20 4 0 16 -9 27 -20z m-3270 -5 c-8 -9 -8 -15 -2
-15 10 0 27 -51 25 -77 -2 -45 -3 -48 -12 -35 -4 7 -6 24 -3 37 2 13 -3 38
-12 56 -13 26 -14 34 -4 41 19 12 22 10 8 -7z m2020 8 c-8 -3 -18 -10 -21 -15
-7 -10 -39 0 -39 13 0 5 17 9 38 8 20 0 30 -3 22 -6z m380 -3 c-8 -5 -25 -10
-37 -10 -14 0 -23 -6 -23 -15 0 -8 -5 -15 -11 -15 -5 0 -7 5 -4 10 4 6 1 17
-5 25 -11 13 -5 15 41 15 39 0 50 -3 39 -10z m-3095 -10 c-3 -5 -13 -10 -21
-10 -8 0 -14 5 -14 10 0 6 9 10 21 10 11 0 17 -4 14 -10z m1265 -10 c-8 -5
-17 -7 -19 -4 -3 3 1 9 9 14 8 5 17 7 19 4 3 -3 -1 -9 -9 -14z m610 10 c0 -5
-4 -10 -10 -10 -5 0 -10 5 -10 10 0 6 5 10 10 10 6 0 10 -4 10 -10z m537 -4
c0 -7 -9 -12 -21 -11 -31 4 -33 6 -11 15 28 12 32 12 32 -4z m-650 -18 c-3 -8
-6 -5 -6 6 -1 11 2 17 5 13 3 -3 4 -12 1 -19z m-1677 3 c0 -5 -7 -11 -14 -14
-10 -4 -13 -1 -9 9 6 15 23 19 23 5z m1544 -7 c3 -8 2 -12 -4 -9 -6 3 -10 10
-10 16 0 14 7 11 14 -7z m-356 -60 c-1 -76 -15 -74 -20 4 -2 44 1 54 19 61 1
1 2 -28 1 -65z m548 45 c1 -5 2 -14 3 -20 0 -6 9 -8 19 -5 13 5 12 2 -4 -11
-12 -10 -21 -28 -19 -40 1 -12 -2 -20 -7 -17 -4 3 -8 30 -8 61 0 31 3 53 8 49
4 -4 8 -12 8 -17z m1281 15 c-3 -3 -12 -4 -19 -1 -8 3 -5 6 6 6 11 1 17 -2 13
-5z m713 -28 c0 -3 -7 -3 -15 0 -8 4 -15 13 -15 21 0 12 2 12 15 -1 8 -8 15
-17 15 -20z m-1657 4 c-3 -11 -9 -17 -14 -15 -10 7 -1 35 11 35 5 0 6 -9 3
-20z m-393 -4 c0 -8 -7 -16 -15 -20 -13 -4 -14 -2 -5 14 13 23 20 26 20 6z
m450 4 c0 -5 -2 -10 -4 -10 -3 0 -8 5 -11 10 -3 6 -1 10 4 10 6 0 11 -4 11
-10z m-593 -42 c-3 -8 -6 -5 -6 6 -1 11 2 17 5 13 3 -3 4 -12 1 -19z m238 -58
c-6 -9 -9 -9 -16 1 -10 17 0 34 13 21 6 -6 7 -16 3 -22z m-1142 -8 c4 8 6 7 6
-4 1 -12 -6 -18 -19 -18 -12 0 -20 7 -20 16 0 13 3 14 14 5 11 -9 15 -9 19 1z
m933 -167 c4 -117 -1 -112 -24 22 -13 73 -15 106 -7 127 l10 29 8 -39 c5 -21
11 -84 13 -139z m2894 165 c0 -5 -2 -10 -4 -10 -3 0 -8 5 -11 10 -3 6 -1 10 4
10 6 0 11 -4 11 -10z m-2627 -17 c-7 -2 -21 -2 -30 0 -10 3 -4 5 12 5 17 0 24
-2 18 -5z m-1192 -36 c-6 -6 -12 -25 -12 -41 -1 -26 -3 -27 -6 -7 -6 32 5 73
18 65 8 -4 7 -10 0 -17z m-1225 -32 c1 -8 -2 -15 -7 -15 -5 0 -9 10 -9 22 0
23 12 17 16 -7z m2924 5 c0 -5 -9 -8 -20 -7 -20 1 -25 8 -14 20 8 7 34 -3 34
-13z m-1155 0 c3 -5 1 -10 -4 -10 -6 0 -11 5 -11 10 0 6 2 10 4 10 3 0 8 -4
11 -10z m2062 -22 c-3 -8 -6 -5 -6 6 -1 11 2 17 5 13 3 -3 4 -12 1 -19z
m-2327 -16 c0 6 3 8 6 5 11 -10 -17 -38 -30 -30 -6 4 -15 8 -20 8 -5 0 -11 5
-13 12 -3 9 4 10 26 3 21 -6 31 -5 31 2z m2460 4 c0 -3 -4 -8 -10 -11 -5 -3
-10 -1 -10 4 0 6 5 11 10 11 6 0 10 -2 10 -4z m-403 -58 c-3 -7 -5 -2 -5 12 0
14 2 19 5 13 2 -7 2 -19 0 -25z m-1630 -10 c-3 -7 -5 -2 -5 12 0 14 2 19 5 13
2 -7 2 -19 0 -25z m1134 -21 c-8 -8 -11 -5 -11 9 0 27 14 41 18 19 2 -9 -1
-22 -7 -28z m2376 -69 c-3 -8 -6 -5 -6 6 -1 11 2 17 5 13 3 -3 4 -12 1 -19z
m-3197 -18 c0 -5 -2 -10 -4 -10 -3 0 -8 5 -11 10 -3 6 -1 10 4 10 6 0 11 -4
11 -10z m3203 -25 c4 -8 2 -17 -3 -20 -6 -4 -10 3 -10 14 0 25 6 27 13 6z m-1
-65 c-2 -17 -6 -30 -8 -30 -2 0 -4 13 -4 30 0 17 4 30 8 30 5 0 7 -14 4 -30z"/>
<path d="M2375 2520 c3 -5 25 -10 47 -10 52 0 43 11 -12 16 -26 3 -39 0 -35
-6z"/>
<path d="M2470 2518 c0 -4 14 -8 30 -8 17 0 30 2 30 4 0 2 -13 6 -30 8 -16 3
-30 1 -30 -4z"/>
<path d="M3805 2620 c-3 -6 1 -7 9 -4 18 7 21 14 7 14 -6 0 -13 -4 -16 -10z"/>
<path d="M3903 2575 c0 -15 5 -25 13 -25 8 0 14 7 14 15 0 8 -5 15 -11 15 -5
0 -7 5 -4 10 3 6 2 10 -3 10 -5 0 -9 -11 -9 -25z"/>
<path d="M4340 2600 c0 -5 5 -10 10 -10 6 0 10 5 10 10 0 6 -4 10 -10 10 -5 0
-10 -4 -10 -10z"/>
<path d="M2086 2491 c-4 -7 -5 -15 -2 -18 9 -9 19 4 14 18 -4 11 -6 11 -12 0z"/>
<path d="M2215 2480 c3 -5 8 -10 11 -10 2 0 4 5 4 10 0 6 -5 10 -11 10 -5 0
-7 -4 -4 -10z"/>
<path d="M2500 2409 c0 -5 5 -7 10 -4 6 3 10 8 10 11 0 2 -4 4 -10 4 -5 0 -10
-5 -10 -11z"/>
<path d="M3220 2386 c0 -8 4 -17 9 -20 5 -4 7 3 4 14 -6 23 -13 26 -13 6z"/>
<path d="M3351 2154 c0 -11 3 -14 6 -6 3 7 2 16 -1 19 -3 4 -6 -2 -5 -13z"/>
<path d="M1075 2142 c-10 -10 -5 -22 9 -22 8 0 16 6 19 13 5 13 -17 19 -28 9z"/>
<path d="M1020 2086 c0 -9 5 -16 10 -16 6 0 10 4 10 9 0 6 -4 13 -10 16 -5 3
-10 -1 -10 -9z"/>
<path d="M1050 2076 c0 -16 6 -26 14 -26 9 0 12 7 9 20 -8 31 -23 34 -23 6z"/>
<path d="M2530 2191 c0 -5 5 -13 10 -16 6 -3 10 -2 10 4 0 5 -4 13 -10 16 -5
3 -10 2 -10 -4z"/>
<path d="M3565 2200 c-3 -5 -1 -10 4 -10 6 0 11 5 11 10 0 6 -2 10 -4 10 -3 0
-8 -4 -11 -10z"/>
<path d="M5250 1949 c0 -5 5 -7 10 -4 6 3 10 8 10 11 0 2 -4 4 -10 4 -5 0 -10
-5 -10 -11z"/>
<path d="M5891 1734 c0 -11 3 -14 6 -6 3 7 2 16 -1 19 -3 4 -6 -2 -5 -13z"/>
<path d="M3946 1695 c2 -11 4 -23 4 -27 0 -4 7 -5 15 -2 8 4 15 1 15 -7 0 -7
2 -10 5 -7 9 9 -6 38 -20 38 -8 0 -15 6 -18 13 -2 6 -3 3 -1 -8z"/>
<path d="M3985 1630 c3 -5 8 -10 11 -10 2 0 4 5 4 10 0 6 -5 10 -11 10 -5 0
-7 -4 -4 -10z"/>
<path d="M5880 1640 c0 -5 5 -10 11 -10 5 0 7 5 4 10 -3 6 -8 10 -11 10 -2 0
-4 -4 -4 -10z"/>
<path d="M4174 1034 c-6 -3 -9 -16 -6 -29 3 -20 1 -24 -12 -19 -12 5 -15 2
-10 -10 9 -24 23 -19 30 12 3 15 7 33 10 40 2 6 2 12 1 11 -1 0 -7 -3 -13 -5z"/>
<path d="M4075 981 c-3 -5 -1 -12 5 -16 5 -3 10 1 10 9 0 18 -6 21 -15 7z"/>
<path d="M4090 910 c0 -5 5 -10 11 -10 5 0 7 5 4 10 -3 6 -8 10 -11 10 -2 0
-4 -4 -4 -10z"/>
<path d="M4191 747 c-13 -21 -12 -21 5 -5 10 10 16 20 13 22 -3 3 -11 -5 -18
-17z"/>
<path d="M4161 684 c0 -11 3 -14 6 -6 3 7 2 16 -1 19 -3 4 -6 -2 -5 -13z"/>
<path d="M2837 745 c3 -8 9 -12 14 -9 12 7 11 11 -5 17 -10 4 -13 1 -9 -8z"/>
<path d="M4377 2358 c19 -21 31 -25 14 -5 -6 8 -9 16 -6 19 3 2 -2 5 -10 5
-13 0 -13 -3 2 -19z"/>
<path d="M4568 2283 c7 -3 16 -2 19 1 4 3 -2 6 -13 5 -11 0 -14 -3 -6 -6z"/>
<path d="M4545 2260 c3 -5 11 -10 16 -10 6 0 7 5 4 10 -3 6 -11 10 -16 10 -6
0 -7 -4 -4 -10z"/>
<path d="M4274 2172 c-27 -18 -66 -363 -66 -592 -1 -280 32 -401 141 -523 52
-57 136 -114 181 -123 51 -11 34 13 -30 42 -70 31 -159 119 -204 203 -63 118
-81 380 -46 696 12 110 26 217 31 238 l10 37 90 0 c83 0 90 -2 84 -17 -13 -30
-43 -196 -54 -294 -16 -142 14 -450 55 -557 36 -95 57 -115 116 -109 111 10
169 92 193 273 19 139 19 254 0 483 -8 102 -14 185 -12 187 4 4 152 32 155 30
3 -4 25 -176 43 -340 12 -109 14 -117 26 -90 6 16 10 36 7 45 -4 15 -29 235
-41 362 -3 31 -8 57 -12 57 -18 0 -178 -33 -191 -40 -19 -10 -19 -21 15 -456
5 -65 -18 -283 -37 -349 -24 -81 -86 -135 -156 -135 -16 0 -36 8 -45 18 -30
34 -67 168 -77 284 -5 62 -13 145 -16 184 -7 80 8 222 38 359 26 121 26 118
-2 126 -33 9 -182 11 -196 1z"/>
<path d="M634 2154 c-4 -11 -30 -80 -59 -154 -29 -74 -60 -160 -69 -190 -54
-190 -141 -473 -215 -705 -32 -99 -56 -182 -54 -185 7 -7 241 -6 248 2 4 4 19
57 35 118 16 61 31 115 35 118 4 4 95 9 204 11 l197 3 14 -73 c25 -144 35
-174 58 -177 20 -3 21 0 15 46 -7 59 11 103 32 81 17 -18 27 -67 14 -74 -14
-9 -11 -51 6 -65 8 -7 15 -19 15 -27 0 -8 5 -11 11 -8 7 5 3 15 -10 29 l-20
21 80 1 c84 1 124 16 70 27 -29 6 -29 8 -33 74 -3 46 -17 100 -42 168 -21 55
-53 150 -72 212 -18 62 -52 158 -75 214 -22 57 -72 197 -110 313 -39 116 -74
214 -77 218 -4 3 -49 10 -99 13 -85 7 -93 6 -99 -11z m230 -750 l14 -42 -129
-7 c-72 -4 -131 -6 -133 -4 -2 2 23 65 55 139 32 74 61 144 64 155 5 15 19 -6
61 -90 29 -60 60 -129 68 -151z"/>
<path d="M723 1545 c-20 -52 -20 -61 -8 -75 8 -9 18 -31 21 -48 6 -29 4 -32
-20 -32 -21 0 -25 4 -24 25 1 14 6 25 10 25 4 0 5 7 1 16 -8 21 -19 8 -37 -45
l-14 -43 30 6 c17 3 59 6 94 6 45 0 64 4 64 13 -1 6 -22 57 -48 112 l-48 99
-21 -59z"/>
<path d="M1319 2106 c-2 -3 0 -78 5 -168 13 -231 13 -502 -2 -722 -6 -104 -10
-192 -7 -194 12 -12 18 12 25 90 4 46 8 78 9 71 5 -43 103 -110 189 -128 54
-11 37 12 -21 29 -72 21 -116 52 -149 106 l-27 45 11 180 c10 153 15 184 32
210 74 106 209 151 329 108 64 -23 120 -72 148 -130 31 -64 39 -224 15 -308
-35 -120 -106 -191 -209 -210 -35 -7 -44 -15 -31 -27 3 -4 33 3 67 15 79 26
145 90 178 173 21 51 24 75 24 189 0 125 -1 132 -29 183 -38 68 -80 105 -151
131 -113 42 -227 19 -311 -64 l-52 -50 -11 150 c-6 83 -11 187 -11 232 0 71
-7 102 -21 89z"/>
<path d="M3550 2103 c-109 -6 -103 2 -95 -123 l7 -108 -58 -7 c-108 -12 -109
-13 -107 -84 4 -99 10 -104 104 -99 53 3 79 1 79 -6 3 -71 15 -200 36 -386 21
-193 28 -230 49 -266 31 -52 69 -77 119 -78 38 -1 40 1 51 39 15 53 42 112 56
121 6 3 15 0 20 -7 15 -23 10 -62 -11 -94 -25 -37 -26 -65 -2 -65 9 0 41 11
70 25 46 21 56 31 78 80 26 56 34 129 16 147 -15 15 -79 26 -121 21 -33 -5
-40 -10 -45 -34 -3 -16 -10 -29 -16 -29 -19 0 -28 45 -40 191 -6 79 -15 191
-21 248 -5 58 -9 110 -9 117 0 8 21 15 55 19 73 10 79 18 68 107 l-8 73 -76 3
-76 3 -7 86 c-7 89 -17 114 -45 111 -9 -1 -41 -3 -71 -5z m167 -875 c-3 -7 -5
-2 -5 12 0 14 2 19 5 13 2 -7 2 -19 0 -25z"/>
<path d="M4351 2028 c-20 -117 -34 -381 -27 -518 7 -144 32 -271 65 -324 69
-111 188 -146 308 -91 96 43 139 98 161 200 45 214 37 719 -12 702 -12 -4 -12
-12 4 -102 24 -145 2 -564 -35 -653 -44 -103 -177 -168 -282 -137 -83 25 -129
87 -160 216 -22 92 -25 456 -4 619 18 137 18 142 5 147 -7 2 -16 -20 -23 -59z"/>
<path d="M4995 2010 c3 -5 8 -10 11 -10 2 0 4 5 4 10 0 6 -5 10 -11 10 -5 0
-7 -4 -4 -10z"/>
<path d="M4491 1966 c-7 -8 -8 -17 -3 -20 6 -3 12 3 15 14 6 24 4 25 -12 6z"/>
<path d="M5111 1954 c0 -11 3 -14 6 -6 3 7 2 16 -1 19 -3 4 -6 -2 -5 -13z"/>
<path d="M4565 1930 c3 -5 8 -10 11 -10 2 0 4 5 4 10 0 6 -5 10 -11 10 -5 0
-7 -4 -4 -10z"/>
<path d="M2734 1903 c-34 -7 -46 -84 -52 -323 -4 -232 5 -319 48 -433 48 -127
135 -194 266 -205 49 -4 65 -2 60 7 -4 6 -24 11 -45 11 -108 0 -202 61 -250
163 -52 110 -64 198 -58 455 5 264 12 298 61 307 18 4 46 5 62 3 l29 -3 -3
-195 c-4 -222 10 -432 33 -487 9 -21 25 -48 37 -60 76 -81 221 -28 286 103 30
59 45 224 41 442 l-4 182 78 0 c46 0 77 4 77 10 0 7 -32 10 -87 8 l-87 -3 3
-205 c4 -350 -21 -460 -117 -521 -58 -37 -103 -44 -147 -24 -77 37 -98 156
-93 520 2 127 -1 236 -5 243 -8 11 -84 15 -133 5z"/>
<path d="M1031 1891 c-10 -7 -10 -10 -1 -16 6 -4 16 -3 22 3 13 13 -4 23 -21
13z"/>
<path d="M2258 1860 c-57 -15 -154 -66 -197 -106 -43 -38 -83 -108 -74 -130 3
-9 14 3 28 33 29 62 73 102 162 148 67 35 80 38 155 38 46 1 106 -5 133 -13
58 -15 134 -67 172 -116 29 -39 44 -37 22 2 -23 44 -114 111 -172 128 -69 20
-182 28 -229 16z"/>
<path d="M2780 1828 c0 -24 -5 -108 -10 -188 -8 -113 -7 -171 4 -265 30 -246
93 -328 264 -342 75 -5 84 -4 125 20 69 41 120 125 146 239 33 145 52 378 31
378 -6 0 -10 -29 -10 -67 -1 -152 -42 -366 -85 -438 -48 -82 -101 -115 -184
-115 -239 0 -308 193 -265 743 5 54 3 77 -5 77 -6 0 -11 -18 -11 -42z"/>
<path d="M4577 1855 c3 -8 9 -12 14 -9 12 7 11 11 -5 17 -10 4 -13 1 -9 -8z"/>
<path d="M4505 1840 c3 -5 8 -10 11 -10 2 0 4 5 4 10 0 6 -5 10 -11 10 -5 0
-7 -4 -4 -10z"/>
<path d="M2240 1778 c-76 -26 -122 -68 -163 -149 -68 -137 -61 -361 17 -494
36 -60 124 -125 171 -125 29 0 14 17 -26 29 -46 14 -113 70 -136 115 -68 131
-71 346 -6 474 36 71 79 107 159 132 87 26 141 19 224 -29 78 -45 114 -88 145
-177 42 -117 33 -272 -22 -381 -51 -102 -108 -144 -203 -151 -42 -3 -67 -9
-63 -15 3 -5 32 -7 70 -4 51 4 74 11 106 35 96 68 146 172 154 317 9 159 -39
297 -125 360 -109 80 -196 98 -302 63z"/>
<path d="M5690 1750 c-8 -14 -8 -26 -2 -32 6 -6 12 0 16 17 9 35 1 43 -14 15z"/>
<path d="M5720 1748 c0 -4 4 -8 9 -8 6 0 12 4 15 8 3 5 -1 9 -9 9 -8 0 -15 -4
-15 -9z"/>
<path d="M2229 1696 c-74 -51 -109 -144 -109 -291 0 -103 20 -193 54 -245 34
-52 122 -94 185 -88 105 10 181 77 210 183 24 89 9 251 -30 327 -37 73 -127
129 -219 135 -46 4 -61 0 -91 -21z m187 -26 c106 -54 149 -150 142 -319 -3
-85 -7 -103 -34 -151 -24 -44 -41 -60 -84 -82 -69 -36 -120 -36 -185 0 -80 44
-115 130 -115 288 0 243 110 348 276 264z"/>
<path d="M2262 1673 c-35 -17 -75 -60 -67 -73 3 -4 -2 -11 -11 -14 -9 -3 -14
-12 -11 -20 3 -7 1 -18 -4 -23 -16 -16 -22 -173 -10 -238 18 -98 48 -145 110
-179 52 -28 58 -29 108 -18 88 18 129 58 160 157 17 53 16 167 -1 234 -23 84
-58 128 -129 162 -70 33 -98 35 -145 12z m22 -37 c9 3 16 1 16 -6 0 -6 -4 -8
-10 -5 -5 3 -10 -2 -10 -12 0 -12 -8 -18 -24 -18 -23 0 -24 1 -8 18 9 10 12
18 7 17 -21 -5 -36 1 -30 10 4 7 12 7 25 0 10 -5 26 -7 34 -4z m-67 -38 c-3
-8 -6 -5 -6 6 -1 11 2 17 5 13 3 -3 4 -12 1 -19z m188 2 c0 -9 -11 -15 -27
-17 -25 -2 -38 14 -23 29 12 11 50 2 50 -12z m-105 -41 c12 -9 11 -10 -7 -6
-25 6 -32 -10 -8 -19 8 -4 15 -16 14 -28 0 -20 -1 -20 -9 -1 l-9 20 -1 -20
c-2 -11 -2 -27 -1 -35 0 -8 -7 0 -15 19 -12 26 -13 40 -5 58 12 26 19 28 41
12z m96 -2 c4 -4 -2 -7 -14 -7 -11 0 -23 4 -26 8 -6 10 30 9 40 -1z m-166 -31
c0 -15 -30 -44 -30 -30 0 5 -5 2 -10 -6 -7 -12 -10 -8 -10 14 0 29 1 29 16 10
8 -10 13 -13 9 -6 -7 14 2 32 16 32 5 0 9 -6 9 -14z m130 -8 c0 -5 -4 -7 -9
-3 -6 3 -14 -2 -19 -11 -8 -15 -10 -14 -14 2 -4 14 1 19 19 20 12 1 23 -2 23
-8z m60 -15 c0 -10 6 -13 18 -8 14 5 15 4 5 -6 -7 -7 -13 -24 -14 -38 l0 -26
-12 25 c-6 14 -17 29 -24 33 -7 4 -13 15 -13 23 0 8 5 12 10 9 6 -3 10 -1 10
5 0 6 5 8 10 5 6 -3 10 -13 10 -22z m-166 -45 c-3 -12 0 -18 9 -18 17 0 12
-36 -6 -47 -6 -4 -8 2 -4 16 4 16 2 21 -7 18 -16 -6 -16 24 -1 36 6 6 6 10 -3
14 -6 2 -9 9 -6 15 10 15 25 -14 18 -34z m118 2 c3 -18 -1 -35 -9 -41 -7 -6
-13 -10 -14 -8 -12 55 -7 95 10 85 5 -3 11 -19 13 -36z m-155 -15 l-1 -36 -23
25 c-27 29 -29 41 -8 32 8 -3 15 -1 15 4 0 6 4 10 9 10 5 0 9 -16 8 -35z m218
-56 c4 -17 4 -33 1 -36 -3 -4 -6 3 -6 15 0 15 -6 22 -20 22 -17 0 -19 2 -8 15
19 21 26 18 33 -16z m-217 -23 c14 5 14 3 -2 -6 -15 -10 -20 -9 -27 1 -5 8 -9
19 -9 24 1 6 5 2 11 -7 5 -10 17 -15 27 -12z m30 -47 c-20 -13 -28 -11 -22 5
3 8 12 12 21 9 12 -5 12 -7 1 -14z m-59 4 c-3 -20 2 -26 11 -13 8 13 10 12 10
-4 0 -12 -5 -16 -16 -12 -9 3 -18 6 -20 6 -2 0 -4 7 -4 15 0 8 5 15 10 15 6 0
9 -3 9 -7z m260 -2 c2 -1 -1 -7 -7 -13 -5 -7 -13 -37 -17 -66 -8 -60 -13 -62
-20 -6 -3 21 -11 42 -18 46 -9 6 -9 10 3 17 18 12 8 24 -14 15 -9 -3 -13 -11
-9 -18 3 -6 -3 -3 -14 7 -11 9 -22 15 -25 12 -3 -3 -16 -1 -29 5 -18 7 -2 9
61 6 47 -3 87 -5 89 -5z m-136 -130 c3 -14 1 -18 -9 -14 -15 6 -18 16 -7 26 9
10 10 9 16 -12z m49 -9 c16 -27 16 -29 -5 -41 -12 -8 -19 -10 -15 -6 4 4 1 17
-7 27 -13 19 -11 48 4 48 4 0 14 -13 23 -28z m-67 -23 c11 -16 1 -19 -13 -3
-7 8 -8 14 -3 14 5 0 13 -5 16 -11z"/>
<path d="M5253 1665 c0 -8 4 -15 9 -15 4 0 8 7 8 15 0 8 -4 15 -8 15 -5 0 -9
-7 -9 -15z"/>
<path d="M1543 1640 c-40 -20 -69 -43 -83 -64 -26 -43 -46 -214 -36 -309 7
-61 10 -69 36 -82 48 -25 159 -30 217 -11 104 34 153 114 153 246 0 139 -66
229 -180 245 -38 5 -55 1 -107 -25z m132 -1 c51 -14 110 -73 124 -124 15 -56
14 -138 -5 -201 -28 -97 -116 -143 -248 -129 -36 4 -72 12 -81 19 -35 25 -27
284 10 356 10 19 36 41 73 59 65 34 72 35 127 20z"/>
<path d="M1562 1612 c-18 -10 -29 -22 -25 -27 4 -4 0 -5 -9 -2 -9 3 -22 -1
-28 -9 -7 -8 -9 -14 -4 -14 5 0 1 -5 -8 -11 -10 -5 -18 -19 -18 -31 0 -19 1
-20 25 -4 34 22 35 21 36 -26 1 -24 4 -33 6 -20 2 12 9 20 14 16 8 -5 26 51
21 69 -1 4 5 7 13 7 8 0 15 -4 15 -10 0 -5 -4 -10 -9 -10 -11 0 -4 -59 9 -75
8 -9 4 -11 -15 -7 -15 2 -25 0 -25 -7 0 -7 5 -9 10 -6 6 3 10 -5 10 -18 0 -23
-2 -24 -25 -14 -14 7 -25 17 -25 22 0 6 -4 3 -10 -5 -8 -12 -10 -12 -16 3 -6
17 -7 17 -20 0 -12 -17 -13 -17 -14 5 0 15 6 22 18 22 10 0 19 6 19 13 0 6 4
21 9 32 7 18 6 18 -9 6 -9 -7 -17 -20 -17 -27 0 -7 -6 -11 -13 -8 -10 3 -14
-8 -16 -43 -1 -26 -4 -72 -5 -100 -3 -49 -2 -52 18 -48 11 2 21 4 21 5 0 1 24
3 54 5 33 3 61 10 70 20 15 15 14 16 -9 15 -61 -5 -80 -1 -73 17 4 9 8 12 10
6 2 -6 12 -9 23 -6 10 3 17 10 14 17 -2 6 4 12 15 13 13 1 21 -7 25 -23 4 -14
11 -22 16 -19 6 3 10 1 10 -5 0 -6 4 -9 9 -5 5 3 13 0 17 -6 5 -9 -1 -10 -19
-5 -14 3 -29 2 -32 -4 -4 -6 8 -10 29 -10 40 0 41 -2 25 -32 -9 -16 -13 -18
-20 -7 -5 8 -3 16 4 21 7 5 8 8 1 8 -5 0 -19 -7 -30 -16 -10 -8 -14 -13 -7
-10 6 4 15 1 18 -5 9 -14 -29 -49 -55 -49 -11 0 -20 -4 -20 -10 0 -13 17 -13
80 1 76 16 124 66 140 144 15 74 8 150 -19 204 -37 72 -135 102 -209 63z m86
-115 c2 -9 -1 -17 -7 -17 -6 0 -11 5 -11 10 0 6 -7 10 -15 10 -8 0 -15 4 -15
8 0 16 45 5 48 -11z m-2 -66 c-2 -34 -16 -55 -16 -23 0 20 9 52 15 52 1 0 2
-13 1 -29z"/>
<path d="M1580 1230 c0 -5 5 -10 10 -10 6 0 10 5 10 10 0 6 -4 10 -10 10 -5 0
-10 -4 -10 -10z"/>
<path d="M1538 1203 c7 -3 16 -2 19 1 4 3 -2 6 -13 5 -11 0 -14 -3 -6 -6z"/>
<path d="M3390 1601 c0 -134 -22 -324 -47 -410 -35 -124 -60 -161 -131 -199
-33 -18 -67 -32 -76 -32 -9 0 -16 -4 -16 -10 0 -26 108 15 153 58 78 73 120
237 133 515 5 107 4 147 -5 147 -7 0 -11 -24 -11 -69z"/>
<path d="M5210 1645 c0 -9 5 -15 11 -13 6 2 11 8 11 13 0 5 -5 11 -11 13 -6 2
-11 -4 -11 -13z"/>
<path d="M3852 1630 c0 -14 2 -19 5 -12 2 6 2 18 0 25 -3 6 -5 1 -5 -13z"/>
<path d="M2900 1539 c0 -5 5 -7 10 -4 6 3 10 8 10 11 0 2 -4 4 -10 4 -5 0 -10
-5 -10 -11z"/>
<path d="M3000 1540 c0 -5 5 -10 11 -10 5 0 7 5 4 10 -3 6 -8 10 -11 10 -2 0
-4 -4 -4 -10z"/>
<path d="M3976 1541 c-3 -4 10 -8 29 -9 19 -1 35 2 35 6 0 10 -58 13 -64 3z"/>
<path d="M4477 1478 c3 -35 11 -76 19 -93 12 -29 13 -29 19 -8 4 13 11 20 17
17 8 -5 3 33 -9 66 -4 8 -5 23 -4 33 2 17 -23 46 -41 47 -3 0 -4 -28 -1 -62z"/>
<path d="M3910 1519 c0 -5 11 -9 25 -9 33 0 33 15 0 16 -14 1 -25 -2 -25 -7z"/>
<path d="M4976 1480 c-3 -19 -11 -75 -16 -125 -14 -122 -32 -180 -79 -252 -31
-49 -52 -68 -103 -96 -34 -20 -84 -42 -110 -48 -29 -8 -48 -19 -48 -27 0 -42
216 59 263 123 43 60 67 111 67 145 0 17 6 41 14 53 20 30 41 220 28 243 -9
16 -11 13 -16 -16z"/>
<path d="M2965 1449 c-4 -6 -5 -12 -2 -15 2 -3 7 2 10 11 7 17 1 20 -8 4z"/>
<path d="M5020 1432 c0 -11 5 -22 11 -24 7 -2 13 -17 15 -32 2 -16 5 -31 8
-34 3 -3 48 -8 98 -12 51 -4 84 -8 73 -9 -12 -1 -16 -4 -9 -9 6 -4 14 -23 17
-42 l7 -35 -33 36 c-29 34 -57 42 -57 18 0 -6 4 -8 9 -5 10 7 25 -24 16 -33
-3 -3 -11 1 -16 9 -9 12 -10 12 -5 -3 3 -10 6 -23 6 -28 0 -6 5 -7 11 -3 7 4
9 0 5 -14 -4 -11 -2 -23 3 -27 7 -3 8 0 5 10 -5 13 -1 15 20 11 14 -2 28 0 31
5 6 8 -17 14 -40 9 -6 -1 -5 3 1 10 13 13 67 -7 58 -21 -3 -5 2 -6 11 -3 14 6
14 8 0 24 -17 19 -20 40 -4 40 13 0 8 42 -6 52 -5 4 5 8 23 8 35 0 39 -7 18
-35 -12 -16 -11 -21 1 -33 8 -8 12 -21 9 -28 -3 -8 -1 -14 4 -14 5 0 11 8 13
18 3 9 5 -1 6 -23 0 -22 -4 -47 -10 -55 -8 -12 -9 -9 -5 12 3 15 2 29 -3 32
-5 3 -11 -10 -13 -29 -4 -35 -4 -35 34 -35 73 0 148 44 148 87 0 65 -44 91
-228 137 -80 20 -162 47 -187 62 -43 25 -45 25 -45 6z m135 -72 c29 1 35 -1
30 -10 -8 -12 -55 -13 -55 -1 0 4 -11 7 -25 6 -19 -3 -25 1 -25 15 0 18 2 18
35 4 19 -8 37 -14 40 -14z m100 -60 c3 -5 1 -10 -4 -10 -6 0 -11 5 -11 10 0 6
2 10 4 10 3 0 8 -4 11 -10z"/>
<path d="M4502 1338 c5 -15 28 -23 28 -10 0 5 -7 13 -16 16 -10 4 -14 1 -12
-6z"/>
<path d="M5078 1313 c7 -3 16 -2 19 1 4 3 -2 6 -13 5 -11 0 -14 -3 -6 -6z"/>
<path d="M3790 1231 c-8 -6 -18 -7 -22 -5 -5 3 -6 -7 -2 -23 9 -37 14 -42 14
-14 0 14 7 25 20 28 11 3 20 9 20 14 0 11 -11 11 -30 0z"/>
<path d="M3385 1199 c-4 -6 -5 -12 -2 -15 2 -3 7 2 10 11 7 17 1 20 -8 4z"/>
<path d="M5220 1180 c0 -5 5 -10 11 -10 5 0 7 5 4 10 -3 6 -8 10 -11 10 -2 0
-4 -4 -4 -10z"/>
<path d="M1970 1167 c-1 -50 94 -163 169 -202 29 -15 133 -36 141 -29 8 9 -24
24 -50 24 -68 1 -191 95 -235 180 -14 27 -24 37 -25 27z"/>
<path d="M2676 1132 c-25 -61 -122 -157 -173 -171 -21 -6 -68 -11 -105 -11
-39 0 -68 -4 -68 -10 0 -14 133 -13 180 1 66 20 200 167 200 220 0 33 -14 21
-34 -29z"/>
<path d="M2651 1024 c0 -11 3 -14 6 -6 3 7 2 16 -1 19 -3 4 -6 -2 -5 -13z"/>
<path d="M3951 971 c-10 -6 -11 -14 -3 -26 9 -17 10 -16 17 4 8 27 4 33 -14
22z"/>
<path d="M4812 942 c9 -11 13 -11 20 0 7 9 8 4 5 -14 -2 -16 0 -28 4 -28 5 0
9 13 9 29 0 24 -4 29 -24 27 -19 -1 -22 -4 -14 -14z"/>
<path d="M3170 920 c0 -11 5 -20 10 -20 6 0 10 9 10 20 0 11 -4 20 -10 20 -5
0 -10 -9 -10 -20z"/>
<path d="M3850 929 c0 -5 5 -7 10 -4 6 3 10 8 10 11 0 2 -4 4 -10 4 -5 0 -10
-5 -10 -11z"/>
<path d="M3880 931 c0 -6 4 -13 10 -16 6 -3 7 1 4 9 -7 18 -14 21 -14 7z"/>
<path d="M3010 912 c0 -10 5 -23 11 -29 7 -7 8 -17 3 -25 -15 -24 -14 -45 2
-23 8 11 21 28 29 38 19 22 19 27 -2 43 -25 19 -43 17 -43 -4z"/>
<path d="M3790 919 c0 -5 5 -7 10 -4 6 3 10 8 10 11 0 2 -4 4 -10 4 -5 0 -10
-5 -10 -11z"/>
<path d="M2260 910 c0 -5 5 -10 10 -10 6 0 10 5 10 10 0 6 -4 10 -10 10 -5 0
-10 -4 -10 -10z"/>
<path d="M2347 904 c-3 -4 10 -26 30 -50 26 -30 39 -40 45 -31 4 6 1 22 -7 34
-8 12 -15 29 -15 38 0 15 -40 22 -53 9z"/>
<path d="M4890 899 c0 -5 5 -7 10 -4 6 3 10 8 10 11 0 2 -4 4 -10 4 -5 0 -10
-5 -10 -11z"/>
<path d="M1045 860 c-6 -11 31 -33 47 -28 6 2 -1 12 -15 21 -15 9 -28 13 -32
7z"/>
<path d="M3850 790 c0 -5 7 -10 15 -10 8 0 15 5 15 10 0 6 -7 10 -15 10 -8 0
-15 -4 -15 -10z"/>
<path d="M3789 768 c0 -13 -2 -31 -4 -40 -2 -10 1 -20 6 -24 5 -3 9 5 9 18 0
13 3 33 6 46 4 13 2 22 -5 22 -6 0 -11 -10 -12 -22z"/>
<path d="M3900 660 c0 -5 5 -10 11 -10 5 0 7 5 4 10 -3 6 -8 10 -11 10 -2 0
-4 -4 -4 -10z"/>
<path d="M5170 490 c0 -5 5 -10 10 -10 6 0 10 5 10 10 0 6 -4 10 -10 10 -5 0
-10 -4 -10 -10z"/>
<path d="M2340 459 c-11 -8 -12 -12 -3 -15 7 -3 9 -13 6 -22 -5 -13 -3 -14 6
-6 7 7 11 21 9 33 -2 16 -6 18 -18 10z"/>
<path d="M5160 450 c0 -5 7 -10 15 -10 8 0 15 5 15 10 0 6 -7 10 -15 10 -8 0
-15 -4 -15 -10z"/>
<path d="M5200 400 c0 -5 5 -10 11 -10 5 0 7 5 4 10 -3 6 -8 10 -11 10 -2 0
-4 -4 -4 -10z"/>
<path d="M5180 359 c0 -5 5 -7 10 -4 6 3 10 8 10 11 0 2 -4 4 -10 4 -5 0 -10
-5 -10 -11z"/>
<path d="M5060 336 c0 -9 5 -16 10 -16 6 0 10 4 10 9 0 6 -4 13 -10 16 -5 3
-10 -1 -10 -9z"/>
<path d="M5100 335 c0 -8 5 -15 10 -15 6 0 10 7 10 15 0 8 -4 15 -10 15 -5 0
-10 -7 -10 -15z"/>
<path d="M5143 235 c0 -63 3 -117 7 -120 4 -3 9 49 9 115 1 66 -2 120 -7 120
-4 0 -8 -52 -9 -115z"/>
<path d="M5027 333 c-4 -3 -7 -11 -7 -17 0 -6 5 -5 12 2 6 6 9 14 7 17 -3 3
-9 2 -12 -2z"/>
<path d="M5180 330 c0 -5 5 -10 10 -10 6 0 10 5 10 10 0 6 -4 10 -10 10 -5 0
-10 -4 -10 -10z"/>
<path d="M5060 296 c0 -9 5 -16 10 -16 6 0 10 4 10 9 0 6 -4 13 -10 16 -5 3
-10 -1 -10 -9z"/>
<path d="M5109 308 c-7 -17 -6 -78 2 -78 5 0 9 18 9 40 0 32 -6 51 -11 38z"/>
<path d="M5180 284 c0 -8 5 -12 10 -9 6 4 8 11 5 16 -9 14 -15 11 -15 -7z"/>
<path d="M3846 275 c-11 -8 -15 -15 -9 -15 6 0 16 7 23 15 16 19 11 19 -14 0z"/>
<path d="M5027 262 c-3 -17 -9 -42 -13 -57 -5 -19 -3 -26 4 -21 6 3 14 27 18
52 7 50 0 71 -9 26z"/>
<path d="M5064 233 c3 -21 6 -77 7 -125 3 -91 17 -145 20 -73 2 46 1 66 -5
115 -2 19 -4 54 -5 78 -1 23 -6 42 -11 42 -6 0 -8 -16 -6 -37z"/>
<path d="M5180 227 c0 -20 4 -37 10 -37 5 0 7 14 3 33 -8 45 -13 47 -13 4z"/>
<path d="M5211 234 c0 -11 3 -14 6 -6 3 7 2 16 -1 19 -3 4 -6 -2 -5 -13z"/>
<path d="M5100 211 c0 -6 5 -13 10 -16 6 -3 10 1 10 9 0 9 -4 16 -10 16 -5 0
-10 -4 -10 -9z"/>
<path d="M5211 194 c0 -11 3 -14 6 -6 3 7 2 16 -1 19 -3 4 -6 -2 -5 -13z"/>
<path d="M5114 98 c2 -89 15 -133 18 -62 2 56 -2 101 -11 127 -6 14 -8 -9 -7
-65z"/>
<path d="M5030 159 c0 -5 5 -7 10 -4 6 3 10 8 10 11 0 2 -4 4 -10 4 -5 0 -10
-5 -10 -11z"/>
<path d="M5178 140 c-3 -16 -1 -35 4 -42 5 -9 8 -4 8 14 0 14 3 33 6 42 3 9 2
16 -4 16 -5 0 -12 -13 -14 -30z"/>
<path d="M5212 150 c0 -14 2 -19 5 -12 2 6 2 18 0 25 -3 6 -5 1 -5 -13z"/>
<path d="M3840 150 c-13 -8 -13 -10 2 -10 9 0 20 5 23 10 8 13 -5 13 -25 0z"/>
<path d="M3680 140 c-10 -7 10 -9 65 -9 55 1 72 3 55 9 -36 11 -102 11 -120 0z"/>
<path d="M5030 109 c0 -27 -2 -30 -15 -19 -13 11 -15 8 -15 -15 0 -23 4 -26
20 -22 17 4 20 2 15 -13 -3 -10 -2 -21 3 -24 12 -7 23 58 15 95 -7 39 -23 37
-23 -2z"/>
<path d="M5211 104 c0 -11 3 -14 6 -6 3 7 2 16 -1 19 -3 4 -6 -2 -5 -13z"/>
<path d="M3665 91 c-10 -18 17 -23 33 -7 15 15 15 16 -5 16 -12 0 -24 -4 -28
-9z"/>
<path d="M5157 93 c-3 -5 -1 -28 3 -53 l7 -45 2 53 c1 49 -2 62 -12 45z"/>
<path d="M3740 74 c-25 -15 -25 -15 10 -8 19 4 51 7 70 7 28 -1 31 1 15 7 -31
13 -68 11 -95 -6z"/>
<path d="M5193 65 c-10 -11 -10 -19 1 -40 9 -18 16 -23 21 -15 4 7 2 16 -5 20
-7 4 -9 16 -5 29 7 24 5 26 -12 6z"/>
<path d="M3680 35 c7 -8 24 -15 39 -15 l26 1 -25 14 c-35 20 -57 20 -40 0z"/>
<path d="M3835 10 c-3 -5 3 -10 14 -10 12 0 21 5 21 10 0 6 -6 10 -14 10 -8 0
-18 -4 -21 -10z"/>
</g>
</svg>
